# File generated by ImageToStl.com - Free Image and 3D model conversion tools

mtllib basicPlane.mtl

# basicPlaneProp_0
o obj1
v -5.6643688 104.0004115 88.25761753
v -8.21777679 102.91318474 88.26225161
v -9.12716163 100.29117318 88.25694593
v 3.57813204 100.2978498 88.21703981
v 2.66604416 102.91890636 88.22806713
v 0.11151561 104.00344255 88.23947687
v 2.66053221 102.92437007 86.47417032
v 3.57262112 100.30332181 86.463143
v -9.13267307 100.29663689 86.50304912
v -8.22328823 102.91864845 86.5083548
v -5.66988049 104.00586691 86.50371657
v 0.10600418 104.00891456 86.48557591
v -8.21777679 102.91318474 88.26225161
v -8.22328823 102.91864845 86.5083548
v 2.66604416 102.91890636 88.22806713
v 2.66053221 102.92437007 86.47417032
v -9.12716163 100.29117318 88.25694593
v -9.13267307 100.29663689 86.50304912
v 3.57813204 100.2978498 88.21703981
v 3.57262112 100.30332181 86.463143
v -5.22430485 53.95688487 87.90842096
v -9.13267307 100.29663689 86.50304912
v -5.22861009 53.96115288 86.53839681
v -0.28244205 53.96374795 86.52285955
v -5.22861009 53.96115288 86.53839681
v -0.27813682 53.9594841 87.89288369
v -0.28244205 53.96374795 86.52285955
v 3.57262112 100.30332181 86.463143
v 39.92837973 35.16084106 88.25763695
v 40.26351885 37.91577058 88.26226995
v 38.44748128 40.0143263 88.25696293
v 32.10061109 29.00788154 88.21705993
v 34.82655875 28.48724396 88.22808813
v 37.0430609 30.15726153 88.23949771
v 34.83404919 28.48928424 86.47419132
v 32.10810984 29.00991766 86.46316312
v 38.45496342 40.01636658 86.50306613
v 40.27100099 37.91781086 86.50837314
v 39.93585772 35.16288549 86.50373599
v 37.05055549 30.15929973 86.48559675
v 40.26351885 37.91577058 88.26226995
v 40.27100099 37.91781086 86.50837314
v 34.82655875 28.48724396 88.22808813
v 34.83404919 28.48928424 86.47419132
v 38.44748128 40.0143263 88.25696293
v 38.45496342 40.01636658 86.50306613
v 32.10061109 29.00788154 88.21705993
v 32.10810984 29.00991766 86.46316312
v -3.63061977 59.80149948 87.90841931
v 38.45496342 40.01636658 86.50306613
v -3.62477059 59.80309351 86.53839517
v -6.09560739 55.5182887 86.52285911
v -3.62477059 59.80309351 86.53839517
v -6.10145307 55.51669286 87.89288325
v -6.09560739 55.5182887 86.52285911
v 32.10810984 29.00991766 86.46316312
v -42.48481089 30.09615465 88.25763838
v -40.26654408 28.4284519 88.26227262
v -37.54112167 28.95190669 88.25696606
v -43.89954931 39.95167585 88.21705684
v -45.71341117 37.85125686 88.22808549
v -45.37537801 35.09670104 88.23949631
v -45.71538343 37.8437514 86.47418868
v -43.90153403 39.94416727 86.46316003
v -37.54310016 28.94440122 86.50306925
v -40.2685205 28.42094643 86.50837582
v -42.48678315 30.08865333 86.50373742
v -45.37736273 35.0891935 86.48559536
v -40.26654408 28.4284519 88.26227262
v -40.2685205 28.42094643 86.50837582
v -45.71341117 37.85125686 88.22808549
v -45.71538343 37.8437514 86.47418868
v -37.54112167 28.95190669 88.25696606
v -37.54310016 28.94440122 86.50306925
v -43.89954931 39.95167585 88.21705684
v -43.90153403 39.94416727 86.46316003
v 0.63412207 55.49902023 87.90842052
v -37.54310016 28.94440122 86.50306925
v 0.63257826 55.49315717 86.53839638
v -1.84275271 59.77536714 86.52285791
v 0.63257826 55.49315717 86.53839638
v -1.8412124 59.781228 87.89288205
v -1.84275271 59.77536714 86.52285791
v -43.90153403 39.94416727 86.46316003
v -1.94021395 55.04757804 97.18855431
v -1.36774327 55.62064663 97.18854169
v -1.15849983 56.40316936 97.19032274
v -1.36855034 57.18547208 97.19342
v -1.94161218 57.75793861 97.19700313
v -2.72413312 57.96717686 97.20011302
v -3.50643763 57.75711649 97.20191925
v -4.07890805 57.1840479 97.20193187
v -4.28815123 56.40152512 97.20015083
v -4.07810072 55.6192183 97.19705771
v -3.5050394 55.04675177 97.19347043
v -2.72251846 54.83751767 97.19036055
v -4.28815123 56.40152512 97.20015083
v -4.07890805 57.1840479 97.20193187
v -6.56508113 58.62382974 92.51417704
v -7.15580172 56.41466452 92.50914982
v -0.53121481 60.24400306 92.50026254
v -2.74037417 60.83470159 92.50904406
v -1.94021395 55.04757804 97.18855431
v -2.72251846 54.83751767 97.19036055
v -2.73581617 51.99926928 92.4815069
v -0.52726873 52.59228885 92.47641616
v -1.15849983 56.40316936 97.19032274
v -1.36774327 55.62064663 97.18854169
v 1.08889209 54.21013699 92.47637392
v 1.67961241 56.41930659 92.48140114
v -4.07810072 55.6192183 97.19705771
v -6.56280188 54.20611773 92.5004106
v -4.94892214 60.24167787 92.51413895
v -1.36855034 57.18547208 97.19342
v 1.08661257 58.62785314 92.49014451
v -3.5050394 55.04675177 97.19347043
v -4.94497502 52.58996782 92.49029258
v -2.72251846 54.83751767 97.19036055
v -2.73581617 51.99926928 92.4815069
v -5.43010436 51.80670719 85.71512619
v -2.75662457 51.09185168 85.70450161
v 1.86920279 59.11363272 85.7149487
v -0.0886601 61.06946004 85.72719693
v -5.43488113 61.06664905 85.74398814
v -7.39072453 59.10876643 85.74403437
v -7.387967 53.7625345 85.72737442
v 2.58683918 56.44089464 85.70437035
v -0.08388411 51.80951402 85.69833498
v 1.87196033 53.76740079 85.69828875
v -2.76214067 61.78431554 85.73782566
v -8.10560339 56.43527267 85.73795277
v -2.75662457 51.09185168 85.70450161
vn 0.00314 -0.99999 -0.00311
vn 0.00314 -0.99999 -0.00327
vn 0.00314 -0.99999 -0.00312
vn -0.00314 0.99999 0.00311
vn -0.00314 0.99999 0.00272
vn -0.00314 0.99999 0.00296
vn -0.39175 -0.0041 0.92006
vn 0.3908 -0.00164 0.92047
vn -0.94478 -0.00399 0.32767
vn -0.00052 -0.00312 0.99999
vn 0.94445 0.00194 0.32866
vn -0.99647 -0.00287 -0.08396
vn -0.00314 0.99999 -0.00103
vn 0.00314 -0.99997 -0.00726
vn 0.99655 0.00339 -0.08291
vn -0.00427 -0.99999 -0.00116
vn -0.0044 -0.99999 -0.00109
vn -0.00427 -0.99999 -0.00116
vn 0.00427 0.99999 0.00116
vn 0.00385 0.99999 0.00141
vn 0.00414 0.99999 0.00124
vn 0.99267 -0.00409 -0.12077
vn 0.60175 -0.00164 -0.79868
vn 0.75616 -0.00399 0.65437
vn 0.86628 -0.00312 -0.49955
vn -0.18759 0.00194 -0.98224
vn 0.42552 -0.00287 0.90494
vn 0.00068 0.99999 0.00323
vn -0.00786 -0.99997 0.00091
vn -0.57008 0.00339 -0.82158
vn 0.00113 -0.99999 0.00428
vn 0.00126 -0.99999 0.00435
vn 0.00117 -0.99999 0.00431
vn -0.00113 0.99999 -0.00428
vn -0.00062 0.99999 -0.00399
vn -0.00087 0.99999 -0.00413
vn -0.60093 -0.00409 -0.79929
vn -0.99255 -0.00164 -0.1218
vn 0.18862 -0.00399 -0.98204
vn -0.86576 -0.00312 -0.50044
vn -0.75685 0.00194 0.65358
vn 0.57094 -0.00287 -0.82099
vn 0.00246 0.99999 -0.00221
vn 0.00471 -0.99997 0.00635
vn -0.42647 0.00339 0.90449
vn 0.00314 -0.99999 -0.00312
vn -0.83178 -0.5091 0.22126
vn 0.22443 -0.50768 0.8318
vn 0.22529 -0.50249 -0.83472
vn 0.83496 -0.50247 -0.22441
vn -0.83155 -0.50771 -0.22528
vn -0.22211 -0.50908 0.83157
vn 0.61189 -0.50197 -0.61124
vn 0.83473 -0.50386 0.22213
vn -0.60808 -0.5058 -0.61188
vn -0.60871 -0.5096 0.60809
vn 0.61126 -0.50577 0.60873
vn -0.22125 -0.50389 -0.83495
vn -0.25567 -0.12907 -0.95811
vn 0.70104 -0.13123 0.70094
vn -0.70094 -0.13564 0.70021
vn -0.70021 -0.13127 -0.70176
vn 0.95785 -0.12904 0.25667
vn 0.70176 -0.12686 -0.70103
vn -0.25666 -0.13504 0.95702
vn -0.95702 -0.13346 -0.25749
vn 0.95811 -0.12744 -0.25648
vn 0.25748 -0.12746 -0.95784
vn 0.2565 -0.13343 0.95729
vn -0.95728 -0.13506 0.25567
vt 0.87064 0.85762
vt 0.86429 0.85492
vt 0.86203 0.8484
vt 0.8936 0.8484
vt 0.89134 0.85492
vt 0.88499 0.85762
vt 0.89134 0.86467
vt 0.8936 0.87119
vt 0.86203 0.87119
vt 0.86429 0.86467
vt 0.87064 0.86197
vt 0.88499 0.86197
vt 0.86374 0.85762
vt 0.86374 0.86197
vt 0.89189 0.85762
vt 0.89189 0.86197
vt 0.85685 0.85762
vt 0.85685 0.86197
vt 0.89879 0.85762
vt 0.89879 0.86197
vt 0.87167 0.73325
vt 0.85769 0.84802
vt 0.86828 0.73295
vt 0.88396 0.98634
vt 0.87167 0.98634
vt 0.88396 0.73325
vt 0.88735 0.73295
vt 0.89794 0.84802
vt 0.95464 0.85762
vt 0.9483 0.85492
vt 0.94603 0.8484
vt 0.97761 0.8484
vt 0.97534 0.85492
vt 0.969 0.85762
vt 0.97534 0.86467
vt 0.97761 0.87119
vt 0.94603 0.87119
vt 0.9483 0.86467
vt 0.95464 0.86197
vt 0.969 0.86197
vt 0.94775 0.85762
vt 0.94775 0.86197
vt 0.97589 0.85762
vt 0.97589 0.86197
vt 0.94085 0.85762
vt 0.94085 0.86197
vt 0.98279 0.85762
vt 0.98279 0.86197
vt 0.95567 0.73325
vt 0.94169 0.84802
vt 0.95228 0.73295
vt 0.96796 0.98634
vt 0.95567 0.98634
vt 0.96797 0.73325
vt 0.97136 0.73295
vt 0.98195 0.84802
vt 0.91264 0.85762
vt 0.90629 0.85492
vt 0.90403 0.8484
vt 0.9356 0.8484
vt 0.93334 0.85492
vt 0.92699 0.85762
vt 0.93334 0.86467
vt 0.9356 0.87119
vt 0.90403 0.87119
vt 0.90629 0.86467
vt 0.91264 0.86197
vt 0.92699 0.86197
vt 0.90574 0.85762
vt 0.90574 0.86197
vt 0.93389 0.85762
vt 0.93389 0.86197
vt 0.89885 0.85762
vt 0.89885 0.86197
vt 0.94079 0.85762
vt 0.94079 0.86197
vt 0.91367 0.73325
vt 0.89969 0.84802
vt 0.91028 0.73295
vt 0.92596 0.98634
vt 0.91367 0.98634
vt 0.92596 0.73325
vt 0.92936 0.73295
vt 0.93995 0.84802
vt 0.4758 0.74361
vt 0.4742 0.74493
vt 0.47215 0.74523
vt 0.47023 0.74447
vt 0.46895 0.74285
vt 0.46877 0.74089
vt 0.46934 0.73902
vt 0.47088 0.73762
vt 0.47293 0.73728
vt 0.47487 0.73801
vt 0.47619 0.73961
vt 0.47653 0.74166
vt 0.47125 0.73554
vt 0.47012 0.73719
vt 0.4593 0.73093
vt 0.46185 0.72712
vt 0.45655 0.74392
vt 0.45663 0.73951
vt 0.4728 0.74969
vt 0.47462 0.75075
vt 0.46885 0.76396
vt 0.46454 0.76043
vt 0.47015 0.74663
vt 0.47131 0.74829
vt 0.46127 0.75663
vt 0.45887 0.75258
vt 0.47273 0.73416
vt 0.46519 0.72372
vt 0.45756 0.73506
vt 0.46936 0.7448
vt 0.45729 0.74831
vt 0.47451 0.73319
vt 0.46934 0.72083
vt 0.47653 0.73261
vt 0.47448 0.71851
vt 0.45901 0.7075
vt 0.46512 0.70327
vt 0.44277 0.75214
vt 0.44157 0.74523
vt 0.44282 0.73112
vt 0.4453 0.72437
vt 0.45354 0.71244
vt 0.44508 0.75872
vt 0.45238 0.77041
vt 0.44834 0.76483
vt 0.44157 0.73816
vt 0.44891 0.7181
vt 0.45684 0.77542
usemtl mat0
f 1/1/1 2/2/1 3/3/2
f 3/3/2 4/4/3 5/5/1
f 5/5/1 6/6/1 1/1/1
f 1/1/1 3/3/2 5/5/1
f 7/7/4 8/8/5 9/9/6
f 9/9/6 10/10/4 11/11/4
f 11/11/4 12/12/4 7/7/4
f 7/7/4 9/9/6 11/11/4
f 13/13/7 1/1/7 11/11/7
f 11/11/7 14/14/7 13/13/7
f 6/6/8 15/15/8 16/16/8
f 16/16/8 12/12/8 6/6/8
f 17/17/9 13/13/9 14/14/9
f 14/14/9 18/18/9 17/17/9
f 1/1/10 6/6/10 12/12/10
f 12/12/10 11/11/10 1/1/10
f 15/15/11 19/19/11 20/20/11
f 20/20/11 16/16/11 15/15/11
f 21/21/12 3/3/12 22/22/12
f 22/22/12 23/23/12 21/21/12
f 8/8/5 24/24/13 25/25/13
f 25/25/13 9/9/6 8/8/5
f 3/3/2 21/21/14 26/26/14
f 26/26/14 4/4/3 3/3/2
f 4/4/15 26/26/15 27/27/15
f 27/27/15 28/28/15 4/4/15
f 29/29/16 30/30/16 31/31/17
f 31/31/17 32/32/18 33/33/16
f 33/33/16 34/34/16 29/29/16
f 29/29/16 31/31/17 33/33/16
f 35/35/19 36/36/20 37/37/21
f 37/37/21 38/38/19 39/39/19
f 39/39/19 40/40/19 35/35/19
f 35/35/19 37/37/21 39/39/19
f 41/41/22 29/29/22 39/39/22
f 39/39/22 42/42/22 41/41/22
f 34/34/23 43/43/23 44/44/23
f 44/44/23 40/40/23 34/34/23
f 45/45/24 41/41/24 42/42/24
f 42/42/24 46/46/24 45/45/24
f 29/29/25 34/34/25 40/40/25
f 40/40/25 39/39/25 29/29/25
f 43/43/26 47/47/26 48/48/26
f 48/48/26 44/44/26 43/43/26
f 49/49/27 31/31/27 50/50/27
f 50/50/27 51/51/27 49/49/27
f 36/36/20 52/52/28 53/53/28
f 53/53/28 37/37/21 36/36/20
f 31/31/17 49/49/29 54/54/29
f 54/54/29 32/32/18 31/31/17
f 32/32/30 54/54/30 55/55/30
f 55/55/30 56/56/30 32/32/30
f 57/57/31 58/58/31 59/59/32
f 59/59/32 60/60/33 61/61/31
f 61/61/31 62/62/31 57/57/31
f 57/57/31 59/59/32 61/61/31
f 63/63/34 64/64/35 65/65/36
f 65/65/36 66/66/34 67/67/34
f 67/67/34 68/68/34 63/63/34
f 63/63/34 65/65/36 67/67/34
f 69/69/37 57/57/37 67/67/37
f 67/67/37 70/70/37 69/69/37
f 62/62/38 71/71/38 72/72/38
f 72/72/38 68/68/38 62/62/38
f 73/73/39 69/69/39 70/70/39
f 70/70/39 74/74/39 73/73/39
f 57/57/40 62/62/40 68/68/40
f 68/68/40 67/67/40 57/57/40
f 71/71/41 75/75/41 76/76/41
f 76/76/41 72/72/41 71/71/41
f 77/77/42 59/59/42 78/78/42
f 78/78/42 79/79/42 77/77/42
f 64/64/35 80/80/43 81/81/43
f 81/81/43 65/65/36 64/64/35
f 59/59/32 77/77/44 82/82/44
f 82/82/44 60/60/33 59/59/32
f 60/60/45 82/82/45 83/83/45
f 83/83/45 84/84/45 60/60/45
f 85/85/46 86/86/46 87/87/46
f 87/87/46 88/88/46 89/89/46
f 89/89/46 90/90/46 91/91/46
f 91/91/46 92/92/46 93/93/46
f 93/93/46 94/94/46 95/95/46
f 95/95/46 96/96/46 85/85/46
f 85/85/46 87/87/46 89/89/46
f 89/89/46 91/91/46 93/93/46
f 93/93/46 95/95/46 85/85/46
f 85/85/46 89/89/46 93/93/46
f 97/97/47 98/98/47 99/99/47
f 99/99/47 100/100/47 97/97/47
f 90/90/48 89/89/48 101/101/48
f 101/101/48 102/102/48 90/90/48
f 103/103/49 104/104/49 105/105/49
f 105/105/49 106/106/49 103/103/49
f 107/107/50 108/108/50 109/109/50
f 109/109/50 110/110/50 107/107/50
f 111/111/51 97/97/51 100/100/51
f 100/100/51 112/112/51 111/111/51
f 91/91/52 90/90/52 102/102/52
f 102/102/52 113/113/52 91/91/52
f 108/108/53 103/103/53 106/106/53
f 106/106/53 109/109/53 108/108/53
f 114/114/54 107/107/54 110/110/54
f 110/110/54 115/115/54 114/114/54
f 116/116/55 111/111/55 112/112/55
f 112/112/55 117/117/55 116/116/55
f 98/98/56 91/91/56 113/113/56
f 113/113/56 99/99/56 98/98/56
f 89/89/57 114/114/57 115/115/57
f 115/115/57 101/101/57 89/89/57
f 118/118/58 116/116/58 117/117/58
f 117/117/58 119/119/58 118/118/58
f 119/119/59 117/117/59 120/120/59
f 120/120/59 121/121/59 119/119/59
f 101/101/60 115/115/60 122/122/60
f 122/122/60 123/123/60 101/101/60
f 99/99/61 113/113/61 124/124/61
f 124/124/61 125/125/61 99/99/61
f 117/117/62 112/112/62 126/126/62
f 126/126/62 120/120/62 117/117/62
f 115/115/63 110/110/63 127/127/63
f 127/127/63 122/122/63 115/115/63
f 109/109/64 106/106/64 128/128/64
f 128/128/64 129/129/64 109/109/64
f 113/113/65 102/102/65 130/130/65
f 130/130/65 124/124/65 113/113/65
f 112/112/66 100/100/66 131/131/66
f 131/131/66 126/126/66 112/112/66
f 110/110/67 109/109/67 129/129/67
f 129/129/67 127/127/67 110/110/67
f 106/106/68 105/105/68 132/132/68
f 132/132/68 128/128/68 106/106/68
f 102/102/69 101/101/69 123/123/69
f 123/123/69 130/130/69 102/102/69
f 100/100/70 99/99/70 125/125/70
f 125/125/70 131/131/70 100/100/70
# Vertices: 132, normals: 70, texture coordinates: 132, faces: 136

# basicPlaneBody_1
o obj2
v -13.47038058 50.63700267 85.81777972
v -17.82416432 48.02451868 80.21414973
v -11.63666376 41.83792487 80.32289574
v -9.1230316 46.29029211 85.89418013
v 7.6853911 36.39181399 8.56789468
v 7.68464164 37.23262538 56.44276382
v -3.18399757 34.3208741 56.49373618
v -3.1832476 33.48006271 8.61886289
v -3.18382526 77.78868978 55.73032172
v -3.18402249 75.58309867 67.74971538
v 6.47644466 72.99494359 67.7953231
v 7.68479735 74.8768513 55.78162625
v -22.00888788 66.92180333 55.9208743
v -19.91649288 65.9241746 67.91909177
v -12.84450521 72.99501832 67.79501585
v -14.05246552 74.87693435 55.78128578
v 18.55334678 56.05470097 56.11236527
v 16.13684694 56.26505538 68.08929028
v 13.54829324 46.60608564 68.25889088
v 15.64106401 45.1877564 56.30316699
v -3.18399757 34.3208741 56.49373618
v -3.1841756 36.94716157 68.42826726
v -12.84464223 39.53531665 68.38265954
v -14.05261915 37.23270842 56.44242334
v -24.92117065 56.05485875 56.11168432
v -22.5050445 56.2652007 68.08868407
v 15.6411512 66.92166216 55.92146391
v 13.54837006 65.92404588 67.91961494
v 6.47630557 39.53524191 68.3829585
v -3.1841756 36.94716157 68.42826726
v -22.008973 45.18789757 56.30258569
v -19.91656762 46.60620605 68.2583594
v -22.00822354 44.34708617 8.4277124
v -24.92042119 55.21405151 8.23681519
v 15.64181347 44.346945 8.42830616
v -14.05186761 36.39189703 8.56755213
v 18.55409623 55.21388958 8.23749821
v -3.1832476 33.48006271 8.61886289
v -22.00813842 66.08099193 8.04600725
v 15.64190066 66.08085076 8.04659892
v -1.43506516 81.09900227 -171.03691988
v 3.87666776 89.37953629 7.63722769
v 9.04470068 85.50221979 7.70540882
v -0.15750945 80.14052474 -171.02007857
v -0.49353557 68.00025496 -170.80687161
v -3.18030062 67.28046258 -170.79426554
v 1.47334211 75.33949233 -170.93573917
v -3.18024379 81.44984059 -171.04311496
v -3.18301871 90.798759 7.6121941
v 1.47332031 69.96679476 -170.84138466
v 2.19324609 72.65313939 -170.888537
v -7.83387796 75.33952555 -170.93588864
v -15.41078066 85.50231113 7.70502268
v -6.20298903 80.14054134 -171.02016161
v -8.55380373 72.65318091 -170.8887197
v -7.83389872 69.96682798 -170.84151753
v -4.92542476 81.09901888 -171.03698631
v -10.24271401 89.37959442 7.63700555
v -3.18301871 90.798759 7.6121941
v -3.18024379 81.44984059 -171.04311496
v -5.86706074 68.00027987 -170.80695465
v -3.18030062 67.28046258 -170.79426554
v -2.04345383 79.61651639 -175.69112429
v -1.21131729 78.99220222 -175.68014589
v -1.43018848 71.084638 -175.54126323
v -3.18021369 70.61580447 -175.5330751
v -3.18017658 79.84502467 -175.69516023
v -0.14907596 72.36554499 -175.56375153
v -6.21132339 75.86507584 -175.62530368
v -5.14904274 78.99221883 -175.68021232
v 0.31984788 74.11530211 -175.59447778
v -0.14906195 75.86505924 -175.62522064
v -6.68024723 74.11532702 -175.59459404
v -6.21133662 72.3655699 -175.56385118
v -4.31690088 79.61652469 -175.69117412
v -3.18017658 79.84502467 -175.69516023
v -4.93023578 71.08465461 -175.54132967
v -3.18021369 70.61580447 -175.5330751
v -4.93023578 71.08465461 -175.54132967
v -6.21133662 72.3655699 -175.56385118
v -6.68024723 74.11532702 -175.59459404
v -6.21132339 75.86507584 -175.62530368
v -5.14904274 78.99221883 -175.68021232
v -4.31690088 79.61652469 -175.69117412
v -3.18017658 79.84502467 -175.69516023
v -2.04345383 79.61651639 -175.69112429
v -1.21131729 78.99220222 -175.68014589
v -0.14906195 75.86505924 -175.62522064
v 0.31984788 74.11530211 -175.59447778
v -0.14907596 72.36554499 -175.56375153
v -1.43018848 71.084638 -175.54126323
v -3.18021369 70.61580447 -175.5330751
v 2.75428284 66.85903979 85.53312177
v -3.18432845 68.45006101 85.50508614
v -9.12294908 66.85908131 85.53293907
v -13.47033491 62.51239981 85.60920661
v -15.06160526 56.57470955 85.71346825
v -13.47038058 50.63700267 85.81777972
v -9.1230316 46.29029211 85.89418013
v -3.18442265 44.69926674 85.92221575
v 2.75419772 46.29024644 85.89437113
v 7.10158303 50.63692794 85.81809528
v 8.69285339 56.57462235 85.71384194
v 7.10163078 62.51232508 85.60953878
v 5.26809198 71.11302757 79.80901165
v -3.18421971 73.37750755 79.76910905
v -11.63654542 71.113094 79.80874592
v -17.82409581 64.92654586 79.91730093
v -13.47033491 62.51239981 85.60920661
v 7.10158303 50.63692794 85.81809528
v 11.45552248 48.02441072 80.21460647
v 13.7203471 56.47541393 80.06621528
v 8.69285339 56.57462235 85.71384194
v -3.18435362 39.57344903 80.36279835
v -3.18442265 44.69926674 85.92221575
v -20.08892044 56.4755385 80.06568381
v -15.06160526 56.57470955 85.71346825
v 11.45559099 64.92643376 79.91776597
v 7.10163078 62.51232508 85.60953878
v -3.18442265 44.69926674 85.92221575
v -3.18435362 39.57344903 80.36279835
v 5.26797157 41.83785843 80.32315318
v 2.75419772 46.29024644 85.89437113
v 132.00055904 94.9248736 45.88023704
v 101.93404374 94.92498156 45.87976369
v 101.93412678 91.16215407 39.54177182
v 132.00064209 91.16204611 39.54224516
v 132.00095765 100.13392066 21.69722111
v 101.93444234 100.13402861 21.69675192
v 101.93419321 99.15285988 37.11426451
v 132.00070852 99.15275193 37.11473786
v 132.00167181 89.38510726 -25.99209902
v 132.00127321 90.12513158 -1.48901789
v 101.93477451 90.12523953 -1.48949123
v 101.93515651 89.38521521 -25.99257236
v 101.93437591 90.8810587 23.53651738
v 132.00089121 90.88094244 23.53699072
v 101.93404374 94.92498156 45.87976369
v 132.00055904 94.9248736 45.88023704
v 132.00127321 98.19735325 0.53678714
v 101.93477451 98.19746121 0.5363221
v 132.00055904 94.9248736 45.88023704
v 132.00064209 91.16204611 39.54224516
v 132.00127321 90.12513158 -1.48901789
v 132.00167181 89.38510726 -25.99209902
v 132.00089121 90.88094244 23.53699072
v 42.09305314 89.38544773 -25.99351074
v 42.09267115 98.19768542 0.53537957
v 42.09233898 100.13426113 21.69580939
v 42.09209815 99.1530841 37.11332198
v 42.09194037 94.92520577 45.87882531
v 42.09202341 91.16237828 39.54082929
v 42.09228085 90.88127461 23.53557069
v 42.09267115 90.12546375 -1.49042961
v 42.09194037 94.92520577 45.87882531
v -3.58564057 94.92537186 45.87810284
v -3.58555493 91.16254437 39.54011097
v -3.58524093 100.13442721 21.69509107
v -3.58548694 99.15325018 37.11260781
v -3.58491343 90.12562983 -1.49114793
v -3.58453092 89.38561382 -25.99423321
v -3.58530425 90.881449 23.53485652
v -3.58564057 94.92537186 45.87810284
v -3.58491525 98.19785151 0.53466125
v -139.17183656 94.92587842 45.87596865
v -139.17175351 91.16305093 39.53797678
v -109.10525482 91.16294297 39.53845012
v -109.10533786 94.92577046 45.87644199
v -139.17143795 100.13493377 21.69296103
v -139.17168708 99.15376505 37.11047362
v -109.10518838 99.15364879 37.11094696
v -109.10493925 100.13482582 21.69343437
v -139.17072379 89.38612038 -25.99636741
v -109.10422509 89.38600412 -25.99589407
v -109.10460708 90.12602844 -1.49280878
v -139.17112239 90.1261447 -1.49328212
v -139.17150439 90.88195556 23.53272233
v -109.10500569 90.8818393 23.53319567
v -139.17183656 94.92587842 45.87596865
v -109.10533786 94.92577046 45.87644199
v -139.17112239 98.19836637 0.53252705
v -109.10460708 98.19825011 0.5330004
v -139.17175351 91.16305093 39.53797678
v -139.17183656 94.92587842 45.87596865
v -139.17072379 89.38612038 -25.99636741
v -139.17112239 90.1261447 -1.49328212
v -139.17150439 90.88195556 23.53272233
v -49.26249541 98.1980259 0.53394293
v -49.26211342 89.3857799 -25.99495569
v -49.26282758 100.1345933 21.69437275
v -49.26322619 94.92553794 45.87738868
v -49.26306841 99.15342457 37.11188534
v -49.26288571 90.88162339 23.53413821
v -49.26314315 91.16271045 39.53939265
v -49.26249541 90.12580422 -1.4918704
v -49.26322619 94.92553794 45.87738868
v 38.59592635 10.7863335 36.22541405
v 6.72035527 36.9429931 39.94770344
v 6.72017466 36.74117146 28.45637411
v 38.59587652 10.73133766 33.09384904
v 40.76415999 12.95424741 36.18730519
v 14.67671121 44.8981864 39.80786578
v 6.72035527 36.9429931 39.94770344
v 38.59592635 10.7863335 36.22541405
v 40.76411017 12.89925573 33.05574019
v 14.67653267 44.69636891 28.31653645
v -44.85370219 10.7863335 36.22541405
v -44.85365236 10.73133766 33.09384904
v -12.97795257 36.74117146 28.45637411
v -12.97813111 36.9429931 39.94770344
v -47.02193583 12.95424741 36.18730519
v -44.85370219 10.7863335 36.22541405
v -12.97813111 36.9429931 39.94770344
v -20.93448705 44.8981864 39.80786578
v -47.021886 12.89925573 33.05574019
v -20.9343085 44.69636891 28.31653645
v 43.34172715 77.87746808 -159.26011824
v 43.34180604 77.93568232 -154.33467972
v 43.34183926 77.41291315 -152.4768176
v 43.34165657 77.33470038 -164.03551527
v 43.34151955 76.31290034 -173.0256224
v 43.34189739 76.42873492 -148.97927947
v 43.3418185 74.87044758 -154.28085065
v 43.34173961 74.88119191 -159.207485
v 35.80274326 78.1466264 -156.82599061
v 35.89651495 78.21356032 -151.16295124
v 35.99272394 77.61248207 -149.02686321
v 43.34173961 74.88119191 -159.207485
v 36.13847199 74.70163791 -156.76551803
v 35.69728333 76.34774511 -172.65297711
v 43.34151955 76.31290034 -173.0256224
v 43.3418185 74.87044758 -154.28085065
v 36.23996664 74.68928277 -151.10106691
v 35.766163 77.52257642 -162.31655038
v 43.34189739 76.42873492 -148.97927947
v 36.17383982 76.48093661 -145.00552561
v 9.23123924 76.67712063 -130.06940293
v 9.54619694 74.00832863 -139.14917899
v 6.96484511 76.47872858 -171.25238087
v 7.29210971 78.22872258 -155.85547192
v 9.06353058 74.02672849 -147.58677087
v 7.91185031 79.2579903 -139.24134113
v 8.36956029 78.36265925 -136.05949773
v 7.46594899 79.1583036 -147.67687353
v 1.47725861 79.3721139 -145.74329338
v 1.99758218 79.47872651 -136.7218125
v 2.53169134 78.52120493 -133.31895953
v 3.34152057 73.88409509 -145.64694582
v 0.89254278 76.50640676 -170.95638388
v 3.9047455 73.86440823 -136.62323936
v 1.27441412 78.3779671 -154.48996949
v 3.53720109 76.71858469 -126.91280473
v 3.53720109 76.71858469 -126.91280473
v 9.23123924 76.67712063 -130.06940293
v 36.17383982 76.48093661 -145.00552561
v 43.34189739 76.42873492 -148.97927947
v -49.59950299 77.87746808 -159.26011824
v -49.59943241 77.33470038 -164.03551527
v -49.5996151 77.41291315 -152.4768176
v -49.59958188 77.93568232 -154.33467972
v -49.59929539 76.31290034 -173.0256224
v -49.59951545 74.88119191 -159.207485
v -49.59959434 74.87044758 -154.28085065
v -49.59967323 76.42873492 -148.97927947
v -42.15429079 78.21356032 -151.16295124
v -42.0605191 78.1466264 -156.82599061
v -42.25049978 77.61248207 -149.02686321
v -49.59951545 74.88119191 -159.207485
v -49.59929539 76.31290034 -173.0256224
v -41.95505917 76.34774511 -172.65297711
v -42.39624782 74.70163791 -156.76551803
v -49.59959434 74.87044758 -154.28085065
v -42.49774247 74.68928277 -151.10106691
v -42.02393884 77.52257642 -162.31655038
v -49.59967323 76.42873492 -148.97927947
v -42.43161566 76.48093661 -145.00552561
v -15.80397277 74.00832863 -139.14917899
v -15.48901508 76.67712063 -130.06940293
v -13.54988763 78.22872258 -155.85547192
v -13.22262302 76.47872858 -171.25238087
v -15.32130642 74.02672849 -147.58677087
v -14.62733821 78.36265925 -136.05949773
v -14.16962615 79.2579903 -139.24134113
v -13.72372483 79.1583036 -147.67687353
v -8.25535854 79.47872651 -136.7218125
v -7.73503549 79.3721139 -145.74329338
v -8.78946873 78.52120493 -133.31895953
v -7.15031991 76.50640676 -170.95638388
v -9.59929693 73.88409509 -145.64694582
v -10.16252238 73.86440823 -136.62323936
v -7.53219099 78.3779671 -154.48996949
v -9.79497796 76.71858469 -126.91280473
v -15.48901508 76.67712063 -130.06940293
v -9.79497796 76.71858469 -126.91280473
v -42.43161566 76.48093661 -145.00552561
v -49.59967323 76.42873492 -148.97927947
v -3.17983766 117.98212985 -188.44435059
v -3.18001101 118.56675282 -177.27256509
v -2.22984085 118.20013672 -176.16417897
v -2.27657773 118.0382276 -179.6578636
v -4.08337319 118.0382359 -179.65788021
v -4.13021855 118.20014502 -176.16419558
v -4.08337319 118.0382359 -179.65788021
v -4.33746222 111.44577697 -174.71422028
v -4.41563903 111.64023067 -170.51839397
v -4.13021855 118.20014502 -176.16419558
v -2.18310448 118.36205414 -172.67044451
v -1.86660011 111.83467607 -166.32255106
v -1.94464613 111.64022237 -170.51834415
v -3.17983766 117.98212985 -188.44435059
v -3.1799124 111.30789838 -185.26524596
v -4.17706391 118.36205414 -172.67047773
v -4.4938161 111.83468438 -166.32258428
v -3.18032917 112.71210627 -158.4312634
v -3.18018462 119.15135917 -166.10072977
v -2.02269267 111.44576866 -174.71418706
v -3.1799124 111.30789838 -185.26524596
v -3.18018462 119.15135917 -166.10072977
v -3.18032917 112.71210627 -158.4312634
v -3.1808282 90.46447322 -131.93324786
v -3.18189504 87.02211116 -64.9023087
v -0.45067366 82.63355558 -137.92422022
v -0.77307664 89.28257439 -144.39044939
v -1.14552005 88.66882781 -157.63378204
v -0.88690364 81.95351569 -152.59797802
v -3.18024664 81.44980737 -171.04311496
v -3.18017061 88.24841171 -174.2814456
v -5.58819595 89.282591 -144.39053244
v -5.91085117 82.63358049 -137.92430326
v -3.18189504 87.02211116 -64.9023087
v -3.1808282 90.46447322 -131.93324786
v -3.18017061 88.24841171 -174.2814456
v -3.18024664 81.44980737 -171.04311496
v -5.47416498 81.9535323 -152.59806106
v -5.2153407 88.66884442 -157.63384847
v -0.66878865 82.29353563 -145.26109912
v -0.95929861 88.97570525 -151.01209911
v -5.69250782 82.29355224 -145.26118216
v -5.4017682 88.97572186 -151.01218215
v -4.17706391 118.36205414 -172.67047773
v 1.05173853 52.34649503 -155.25456846
v 1.05175929 57.39242833 -155.34319293
v 1.05179562 57.35098526 -157.70294768
v 1.0517759 52.30505196 -157.6143066
v 0.55256798 63.89470097 -152.82278582
v 0.55264324 64.75982074 -157.41489164
v 2.86010816 57.39242002 -155.34315971
v 4.05889642 64.8340621 -152.83922851
v 2.75214034 57.35097695 -157.70291446
v 3.84955643 65.6430866 -157.43035442
v 3.84955643 65.6430866 -157.43035442
v 2.75214034 57.35097695 -157.70291446
v 2.8600874 52.34649088 -155.25455185
v 2.75212062 52.30504781 -157.61428999
v 2.75212062 52.30504781 -157.61428999
v 6.82891892 49.39763358 -149.68417054
v 6.82891685 52.76047244 -148.84612231
v 3.82497998 52.7604849 -148.84617214
v 3.8249779 49.39764603 -149.68422037
v 6.82899366 58.49900903 -152.29501544
v 6.82904972 59.33707387 -155.65784184
v 3.82511077 59.33708217 -155.65787506
v 3.82505472 58.49902148 -152.29506526
v 6.82909954 49.19400158 -161.278809
v 6.82905179 46.78680114 -158.7855543
v 3.82511285 46.7868136 -158.78560412
v 3.8251606 49.19401403 -161.27885883
v 6.82894591 46.90437472 -152.09139174
v 3.82500697 46.90438303 -152.09144157
v 6.82894591 56.09180028 -149.80174413
v 3.82500697 56.09181274 -149.80179395
v 5.90111939 53.9816664 -153.3127675
v 5.90114015 54.91607377 -154.28057929
v 7.65185435 55.84138009 -153.76777497
v 7.65182736 54.52662117 -152.40600904
v 6.82909954 58.3814396 -158.9891946
v 6.82912861 55.88817244 -161.39638258
v 3.82518966 55.88818489 -161.39643241
v 3.8251606 58.38145205 -158.98924443
v 6.82899574 45.9487363 -155.42271128
v 3.82505679 45.94874876 -155.4227445
v 6.82912653 52.52533773 -162.23444742
v 3.82518966 52.52535018 -162.23451386
v 3.00233001 52.54031055 -161.38279587
v 3.00232897 55.4752683 -160.65132438
v 3.00230406 57.65130438 -158.55041397
v 3.00226254 58.48534758 -155.64294376
v 3.00221271 57.7539176 -152.70800262
v 3.00217119 55.65299474 -150.53195408
v 3.00214628 52.74553284 -149.69790673
v 3.00214628 49.81056678 -150.42934501
v 3.00217119 47.63453485 -152.53025541
v 3.00221479 46.80049165 -155.43770901
v 3.00226358 47.53192163 -158.37269998
v 3.00230614 49.63284449 -160.54873192
v 7.65196023 55.47525169 -160.65127455
v 7.65196023 52.54029394 -161.38271283
v 7.65193532 57.65128777 -158.55033093
v 7.65189172 58.48532682 -155.64286072
v 7.65184397 57.75389684 -152.70791958
v 7.65180245 55.65297814 -150.53188764
v 7.65177754 52.74551208 -149.6978403
v 7.65177754 49.81055017 -150.42926197
v 7.65180245 47.63451824 -152.53020559
v 7.65184397 46.8004792 -155.43764258
v 7.6518938 47.53190502 -158.37263355
v 7.6519374 49.63282788 -160.54864887
v 7.65192702 54.41540045 -158.73875365
v 7.65192702 52.57869345 -159.19648387
v 7.65191248 55.77717053 -157.42397397
v 7.65188549 56.29911862 -155.60447782
v 7.65181283 52.70711672 -151.88405265
v 7.65181283 50.87040556 -152.34178287
v 7.65182736 49.50863133 -153.65656255
v 7.65185435 48.98669155 -155.47604209
v 7.65188549 49.44442592 -157.31277816
v 7.65191248 50.75918484 -158.67451087
v 5.9011796 51.30414377 -157.76783545
v 5.90119206 52.59727037 -158.13877044
v 5.90118998 53.90262519 -157.81345978
v 5.9011796 54.87044114 -156.87906487
v 5.90116091 55.24138858 -155.5859092
v 5.90114015 54.91607377 -154.28057929
v 5.90111939 53.9816664 -153.3127675
v 5.90110901 52.68854395 -152.94183251
v 5.90110901 51.38318913 -153.26712656
v 5.90112147 50.41537734 -154.20153808
v 5.90114015 50.04442573 -155.49464393
v 5.90116091 50.36974055 -156.80004027
v 5.90119206 52.59727037 -158.13877044
v 5.9011796 51.30414377 -157.76783545
v 5.9011796 54.87044114 -156.87906487
v 5.90118998 53.90262519 -157.81345978
v 5.90114015 50.04442573 -155.49464393
v 5.90112147 50.41537734 -154.20153808
v 5.90110901 52.68854395 -152.94183251
v 5.90116091 55.24138858 -155.5859092
v 5.90116091 50.36974055 -156.80004027
v 5.90110901 51.38318913 -153.26712656
v 80.9879795 92.41046594 36.32683584
v 12.01773532 44.85172747 37.163167
v 12.01764813 44.75430035 31.61593883
v 80.98789646 92.31304711 30.77960767
v 80.38578788 93.28350095 36.31151009
v 80.38570483 93.18607383 30.76428191
v 11.4154565 45.62733536 31.60061722
v 11.4155437 45.72476249 37.14784125
v -87.24577195 92.41046594 36.32683584
v -87.2456723 92.31304711 30.77960767
v -18.27542397 44.75430035 31.61593883
v -18.27551116 44.85172747 37.163167
v -86.64358032 93.28350095 36.31151009
v -17.67331954 45.72476249 37.14784125
v -17.67323234 45.62733536 31.60061722
v -86.64348067 93.18607383 30.76428191
v 43.66710047 5.36130946 46.33636956
v 43.66710047 12.07763244 48.0101699
v 37.66758081 12.07761168 48.01026124
v 37.66758081 5.36129286 46.33646506
v 43.66694684 23.53874068 41.12196262
v 43.66683473 25.21254102 34.40564794
v 37.66731508 25.21252026 34.40574344
v 37.66742718 23.53871992 41.12205811
v 43.66673508 4.95461017 23.17934639
v 43.66683058 0.14691082 28.1589508
v 37.66731093 0.14689421 28.15904215
v 37.66721543 4.95459356 23.17944189
v 43.66703818 0.38171751 41.52866191
v 37.66751853 0.3816926 41.52875326
v 43.66704649 18.73103304 46.10155872
v 37.66752684 18.73101227 46.10165837
v 41.81378092 14.51661977 39.08935252
v 41.81374355 16.38283113 37.15641952
v 45.31032642 18.23089021 38.18049188
v 45.31038039 15.60502625 40.9002453
v 43.66673923 23.303934 27.7522515
v 43.6666811 18.32432958 22.9445397
v 37.66716145 18.32430882 22.9446352
v 37.66721958 23.30390908 27.75234285
v 43.66694269 -1.52688536 34.87526132
v 37.66742303 -1.52691028 34.87535682
v 43.6666811 11.60802322 21.27073936
v 37.66716145 11.60799831 21.27083901
v 36.02378187 11.6378692 22.9719747
v 36.02378602 17.49962162 24.43280842
v 36.02383585 21.84563168 28.62879963
v 36.02391889 23.51139703 34.43564341
v 36.02401854 22.05056747 40.29739997
v 36.02410158 17.8545721 44.64341419
v 36.02414726 12.04772417 46.30917538
v 36.02414726 6.18597176 44.84834582
v 36.02409743 1.8399617 40.65235045
v 36.02401439 0.1741922 34.84550668
v 36.02391474 1.63503421 28.98375427
v 36.02383169 5.83101713 24.63774005
v 45.31011466 17.49965483 24.43265894
v 45.31011051 11.63790657 22.97182938
v 45.31016448 21.84566905 28.62865431
v 45.31024753 23.51143024 34.43549808
v 45.31034718 22.05060068 40.29725465
v 45.31043022 17.85460531 44.64326886
v 45.31047589 12.04776154 46.30903006
v 45.31047589 6.18601328 44.8482005
v 45.31042607 1.83999491 40.65220513
v 45.31034303 0.17423372 34.84536135
v 45.31024337 1.63506743 28.98360894
v 45.31016033 5.83105865 24.63759473
v 45.31018109 15.38288791 28.25236941
v 45.31018109 11.71458518 27.33817537
v 45.31021016 18.10264548 30.87823753
v 45.31026414 19.14508426 34.51218084
v 45.31040946 11.97107878 41.94268407
v 45.31040946 8.30276774 41.02849418
v 45.31037624 5.58301432 38.40262191
v 45.31032226 4.5405714 34.7686786
v 45.31025998 5.4547696 31.10036756
v 45.31021016 8.08063771 28.38061414
v 41.81366051 9.16901513 30.19161902
v 41.8136356 11.75167259 29.45075386
v 41.81363975 14.35874912 30.10047417
v 41.81366051 16.29168627 31.96668553
v 41.81369788 17.03254314 34.54933884
v 41.81374355 16.38283113 37.15641952
v 41.81378092 14.51661977 39.08935252
v 41.81380168 11.9339623 39.83021769
v 41.81380168 9.32688578 39.18049322
v 41.81378092 7.39395693 37.31428601
v 41.8137394 6.65308346 34.73162855
v 41.81369788 7.30280792 32.12455617
v 41.8136356 11.75167259 29.45075386
v 41.81366051 9.16901513 30.19161902
v 41.81366051 16.29168627 31.96668553
v 41.81363975 14.35874912 30.10047417
v 41.8137394 6.65308346 34.73162855
v 41.81378092 7.39395693 37.31428601
v 41.81380168 11.9339623 39.83021769
v 41.81369788 17.03254314 34.54933884
v 41.81369788 7.30280792 32.12455617
v 41.81380168 9.32688578 39.18049322
v -51.9190859 5.36130946 46.33636956
v -45.91956625 5.36129286 46.33646506
v -45.91956625 12.07761168 48.01026124
v -51.9190859 12.07763244 48.0101699
v -51.91893227 23.53874068 41.12196262
v -45.91941262 23.53871992 41.12205811
v -45.91930051 25.21252026 34.40574344
v -51.91882016 25.21254102 34.40564794
v -51.91872051 4.95461017 23.17934639
v -45.91920086 4.95459356 23.17944189
v -45.91929636 0.14689421 28.15904215
v -51.91881601 0.14691082 28.1589508
v -51.91902362 0.38171751 41.52866191
v -45.91950397 0.3816926 41.52875326
v -51.91903192 18.73103304 46.10155872
v -45.91951227 18.73101227 46.10165837
v -50.06576636 14.51661977 39.08935252
v -53.56236583 15.60502625 40.9002453
v -53.56231185 18.23089021 38.18049188
v -50.06572899 16.38283113 37.15641952
v -51.91872467 23.303934 27.7522515
v -45.91920501 23.30390908 27.75234285
v -45.91914688 18.32430882 22.9446352
v -51.91866654 18.32432958 22.9445397
v -51.91892812 -1.52688536 34.87526132
v -45.91940847 -1.52691028 34.87535682
v -45.91914688 11.60799831 21.27083901
v -51.91866654 11.60802322 21.27073936
v -44.2757673 11.6378692 22.9719747
v -44.27577146 17.49962162 24.43280842
v -44.27582128 21.84563168 28.62879963
v -44.27590432 23.51139703 34.43564341
v -44.27600398 22.05056747 40.29739997
v -44.27608702 17.8545721 44.64341419
v -44.27613269 12.04772417 46.30917538
v -44.27613269 6.18597176 44.84834582
v -44.27608287 1.8399617 40.65235045
v -44.27599982 0.1741922 34.84550668
v -44.27590017 1.63503421 28.98375427
v -44.27581713 5.83101713 24.63774005
v -53.56209594 11.63790657 22.97182938
v -53.56210009 17.49965483 24.43265894
v -53.56214992 21.84566905 28.62865431
v -53.56223296 23.51143024 34.43549808
v -53.56233261 22.05060068 40.29725465
v -53.56241566 17.85460531 44.64326886
v -53.56246133 12.04776154 46.30903006
v -53.56246133 6.18601328 44.8482005
v -53.5624115 1.83999491 40.65220513
v -53.56232846 0.17423372 34.84536135
v -53.56222881 1.63506743 28.98360894
v -53.56214577 5.83105865 24.63759473
v -53.56216653 11.71458518 27.33817537
v -53.56216653 15.38288791 28.25236941
v -53.56219559 18.10264548 30.87823753
v -53.56224957 19.14508426 34.51218084
v -53.56239489 11.97107878 41.94268407
v -53.56239489 8.30276774 41.02849418
v -53.56236168 5.58301432 38.40262191
v -53.5623077 4.5405714 34.7686786
v -53.56224542 5.4547696 31.10036756
v -53.56219559 8.08063771 28.38061414
v -50.06568331 17.03254314 34.54933884
v -50.06564595 16.29168627 31.96668553
v -50.06562518 14.35874912 30.10047417
v -50.06562103 11.75167259 29.45075386
v -50.06564595 9.16901513 30.19161902
v -50.06568331 7.30280792 32.12455617
v -50.06572484 6.65308346 34.73162855
v -50.06576636 7.39395693 37.31428601
v -50.06578712 9.32688578 39.18049322
v -50.06578712 11.9339623 39.83021769
v -50.06576636 14.51661977 39.08935252
v -50.06572899 16.38283113 37.15641952
v -50.06562103 11.75167259 29.45075386
v -50.06564595 9.16901513 30.19161902
v -50.06564595 16.29168627 31.96668553
v -50.06562518 14.35874912 30.10047417
v -50.06572484 6.65308346 34.73162855
v -50.06576636 7.39395693 37.31428601
v -50.06578712 11.9339623 39.83021769
v -50.06568331 17.03254314 34.54933884
v -50.06568331 7.30280792 32.12455617
v -50.06578712 9.32688578 39.18049322
v -10.24321278 89.93876235 39.47554986
v -14.05246552 74.87693435 55.78128578
v -3.18382526 77.78868978 55.73032172
v -3.18351723 91.35792694 39.45073633
v 3.87616847 89.93871253 39.47576992
v 7.68479735 74.8768513 55.78162625
v 15.6411512 66.92166216 55.92146391
v 9.04420242 86.06138773 39.54394898
v 3.87666776 89.37953629 7.63722769
v 9.04470068 85.50221979 7.70540882
v -10.24271401 89.37959442 7.63700555
v -3.18301871 90.798759 7.6121941
v -3.18301871 90.798759 7.6121941
v -3.18351723 91.35792694 39.45073633
v -15.41078066 85.50231113 7.70502268
v -15.41128099 86.06147907 39.54356283
v 15.64190066 66.08085076 8.04659892
v -3.18382526 77.78868978 55.73032172
v -22.00888788 66.92180333 55.9208743
v -22.00813842 66.08099193 8.04600725
vn -0.40089 -0.89033 -0.21585
vn -0.78171 -0.43825 -0.44369
vn -0.45133 -0.44406 -0.77402
vn -0.23146 -0.89331 -0.38525
vn 0.49408 0.07794 -0.86592
vn 0.4976 -0.11291 -0.86003
vn -1E-05 -0.11524 -0.99334
vn -0 0.08257 -0.99659
vn 0 -0.18049 0.98358
vn 0 -0.18049 0.98358
vn 0.49013 -0.1828 0.85227
vn 0.49013 -0.1828 0.85227
vn -0.9006 -0.12314 0.41683
vn -0.84893 -0.18908 0.49353
vn -0.49013 -0.18279 0.85227
vn -0.49013 -0.18279 0.85227
vn 0.99521 -0.09778 0.00171
vn 0.98025 -0.19772 0.00347
vn 0.84892 -0.20632 -0.48658
vn 0.86187 -0.10651 -0.49581
vn -1E-05 -0.21492 -0.97663
vn -0.49013 -0.2126 -0.84532
vn -0.49761 -0.11289 -0.86002
vn -0.99521 -0.09775 0.00172
vn -0.98026 -0.19769 0.00348
vn 0.9006 -0.12317 0.41683
vn 0.84893 -0.18911 0.49352
vn 0.49012 -0.21262 -0.84533
vn -0.86188 -0.10649 -0.49581
vn -0.84893 -0.2063 -0.48658
vn -0.85981 0.06491 -0.50647
vn -0.99889 0.04616 -0.0099
vn 0.85981 0.06489 -0.50647
vn -0.49408 0.07795 -0.86591
vn 0.99889 0.04613 -0.00991
vn -0.95972 0.04209 0.27779
vn 0.95972 0.04206 0.27778
vn 0.40138 0.18844 0.89631
vn 0.41039 0.05439 0.91029
vn 0.81086 0.05922 0.58223
vn 0.79394 0.18291 0.57983
vn 0.46145 0.35994 -0.81087
vn 0 0.37669 -0.92634
vn 0.94334 0.17493 0.28198
vn 1E-05 0.18814 0.98214
vn 1E-05 0.05226 0.99863
vn 0.8177 0.31047 -0.48474
vn 0.97235 0.2331 -0.01427
vn -0.94333 0.17496 0.28199
vn -0.81086 0.05924 0.58224
vn -0.79393 0.18293 0.57984
vn -0.97234 0.23313 -0.01426
vn -0.8177 0.3105 -0.48473
vn -0.40137 0.18846 0.89632
vn -0.41038 0.0544 0.91029
vn -0.46145 0.35995 -0.81086
vn 0.26055 0.7812 0.5673
vn 0.5345 0.76188 0.36585
vn 0.2735 0.8439 -0.46155
vn 1E-05 0.85188 -0.52374
vn 1E-05 0.78587 0.61839
vn 0.50252 0.81973 -0.27482
vn -0.58041 0.79743 0.16499
vn -0.53447 0.7619 0.36585
vn 0.62385 0.7813 0.0198
vn 0.58044 0.79741 0.16499
vn -0.62382 0.78132 0.01981
vn -0.5025 0.81974 -0.27481
vn -0.26052 0.78121 0.5673
vn -0.27348 0.84391 -0.46155
vn 0.23144 -0.87924 0.41638
vn -1E-05 -0.87815 0.47839
vn -0.23146 -0.87923 0.41638
vn -0.40089 -0.88221 0.24698
vn -0.46291 -0.88627 0.01557
vn -2E-05 -0.8944 -0.44726
vn 0.23143 -0.89332 -0.38525
vn 0.40086 -0.89035 -0.21585
vn 0.46288 -0.88628 0.01556
vn 0.40087 -0.88222 0.24698
vn 0.45131 -0.41662 0.78914
vn -0 -0.41449 0.91005
vn -0.45132 -0.41661 0.78914
vn -0.78171 -0.4224 0.45881
vn 0.7817 -0.43828 -0.44369
vn 0.90263 -0.43035 0.00755
vn -1E-05 -0.44619 -0.89494
vn -0.90264 -0.43033 0.00756
vn 0.7817 -0.42243 0.4588
vn 0.45131 -0.44407 -0.77403
vn 0.55264 -0.83265 0.03597
vn -2E-05 -0.99907 0.04316
vn -1E-05 -0.27315 -0.96197
vn 0.65372 -0.20671 -0.72795
vn 0.69012 0.01002 0.72363
vn 0 0.01385 0.9999
vn -0 -0.25368 0.96729
vn 0.66639 -0.18916 0.72121
vn 0.53833 0.8298 -0.1471
vn 0.7071 -0.02136 -0.70679
vn -0 -0.03019 -0.99954
vn 2E-05 0.98465 -0.17455
vn -0 -0.02387 -0.99971
vn 0.70569 -0.01693 -0.70832
vn 0.68224 0.14953 0.71568
vn 1E-05 0.20453 0.97886
vn 1E-05 0.98465 -0.17455
vn 1E-05 0.20453 0.97886
vn 0 0.01385 0.9999
vn -0 -0.25368 0.96729
vn -2E-05 -0.99907 0.04316
vn -1E-05 -0.27315 -0.96197
vn -0 -0.02387 -0.99971
vn -0 -0.03019 -0.99954
vn -2E-05 -0.99907 0.04316
vn -1E-05 -0.27315 -0.96197
vn 0 0.01385 0.9999
vn -0 -0.25368 0.96729
vn -0 -0.03019 -0.99954
vn 1E-05 0.98465 -0.17455
vn -0 -0.02387 -0.99971
vn 1E-05 0.20453 0.97886
vn -0.55266 -0.83263 0.03598
vn -0.65373 -0.20669 -0.72795
vn -1E-05 -0.27315 -0.96197
vn -2E-05 -0.99907 0.04316
vn -0.69011 0.01004 0.72364
vn -0.66639 -0.18913 0.72121
vn -0 -0.25368 0.96729
vn 0 0.01385 0.9999
vn -0.5383 0.82981 -0.1471
vn 1E-05 0.98465 -0.17455
vn -0 -0.03019 -0.99954
vn -0.70711 -0.02133 -0.70678
vn -0.70569 -0.0169 -0.70832
vn -0 -0.02387 -0.99971
vn -0.68223 0.14955 0.71568
vn 1E-05 0.20453 0.97886
vn 1E-05 0.20453 0.97886
vn 1E-05 0.98465 -0.17455
vn 0 0.01385 0.9999
vn -2E-05 -0.99907 0.04316
vn -0 -0.25368 0.96729
vn -0 -0.02387 -0.99971
vn -1E-05 -0.27315 -0.96197
vn -0 -0.03019 -0.99954
vn -0.63334 -0.0136 -0.77375
vn 0.07177 -0.99594 -0.05427
vn 0.77387 0.01113 0.63325
vn 0.07174 0.99343 -0.08921
vn 0.63334 -0.0136 -0.77375
vn -0.07177 -0.99594 -0.05427
vn -0.77387 0.01113 0.63325
vn -0.07174 0.99343 -0.08921
vn 1 2E-05 1E-05
vn 1 2E-05 0
vn 1 2E-05 0
vn 1 2E-05 0
vn 1 2E-05 0
vn 1 2E-05 0
vn 0.03196 0.0121 0.99942
vn 0.03182 0.01247 0.99942
vn 0.03189 0.01237 0.99941
vn 0.14914 -0.26451 0.95278
vn 0.14522 -0.25497 0.95598
vn 0.14799 -0.25918 0.95442
vn 0.15155 -0.26442 0.95243
vn -0.00981 0.10291 -0.99464
vn -0.00976 0.10263 -0.99467
vn -0.00977 0.10268 -0.99467
vn 0.02426 0.00241 -0.9997
vn 0.02407 0.00289 -0.99971
vn 0.02414 0.00272 -0.9997
vn -0.00098 0.11293 0.9936
vn -0.00098 0.11292 0.9936
vn -0.00098 0.11292 0.9936
vn -0.00098 0.11293 0.9936
vn 0.14876 -0.27966 -0.94851
vn 0.14886 -0.28014 -0.94835
vn 0.1498 -0.28207 -0.94763
vn 0.15029 -0.28283 -0.94732
vn 0.15067 -0.28368 -0.94701
vn -0.00098 0.11291 0.9936
vn -0.00098 0.11291 0.9936
vn 0.02386 0.00344 -0.99971
vn 0.02389 0.00335 -0.99971
vn -0.00969 0.10228 -0.99471
vn -0.0097 0.1023 -0.99471
vn 0.14234 -0.24864 0.95808
vn 0.14412 -0.25102 0.95719
vn 0.03153 0.01324 0.99942
vn 0.03149 0.01334 0.99941
vn 0.03142 0.01355 0.99941
vn 0.14203 -0.24824 0.95823
vn 0.14285 -0.24809 0.95815
vn -0.00967 0.10217 -0.99472
vn 0.02379 0.00361 -0.99971
vn -0.00098 0.11291 0.9936
vn -0.00098 0.11291 0.9936
vn 0.15083 -0.28381 -0.94694
vn -0.00098 0.11291 0.9936
vn -0.00098 0.11291 0.9936
vn 0.14343 -0.24799 0.95809
vn 0.1462 -0.25297 0.95636
vn 0.15144 -0.26284 0.95288
vn -0.00098 0.11292 0.9936
vn -0.00099 0.11293 0.9936
vn 0.1517 -0.26435 0.95242
vn -1 2E-05 1E-05
vn -1 2E-05 0
vn -1 2E-05 0
vn -1 2E-05 0
vn -1 2E-05 0
vn -1 2E-05 0
vn -0.03196 0.0121 0.99942
vn -0.03174 0.01267 0.99942
vn -0.03182 0.01247 0.99942
vn -0.14914 -0.26451 0.95278
vn -0.15136 -0.26437 0.95247
vn -0.14799 -0.25918 0.95442
vn -0.14501 -0.25506 0.95599
vn 0.00981 0.10291 -0.99464
vn 0.00977 0.10268 -0.99467
vn 0.00976 0.10263 -0.99467
vn -0.02426 0.00241 -0.9997
vn -0.02414 0.00272 -0.9997
vn -0.02407 0.00289 -0.99971
vn 0.00098 0.11293 0.9936
vn 0.00098 0.11293 0.9936
vn 0.00098 0.11292 0.9936
vn 0.00098 0.11292 0.9936
vn -0.14876 -0.27965 -0.94851
vn -0.1499 -0.28193 -0.94765
vn -0.14897 -0.28007 -0.94835
vn -0.15075 -0.28364 -0.94701
vn -0.15058 -0.2833 -0.94714
vn 0.00098 0.11291 0.9936
vn 0.00098 0.11291 0.9936
vn -0.02389 0.00335 -0.99971
vn -0.02386 0.00344 -0.99971
vn 0.0097 0.1023 -0.99471
vn 0.00969 0.10228 -0.99471
vn -0.14412 -0.25102 0.95719
vn -0.14223 -0.24868 0.95809
vn -0.03149 0.01334 0.99941
vn -0.03153 0.01324 0.99942
vn -0.03142 0.01355 0.99941
vn -0.14285 -0.24809 0.95815
vn -0.14203 -0.24824 0.95823
vn 0.00967 0.10217 -0.99472
vn -0.02379 0.00361 -0.99971
vn 0.00098 0.11291 0.9936
vn 0.00098 0.11291 0.9936
vn -0.15083 -0.28381 -0.94694
vn 0.00098 0.11291 0.9936
vn 0.00098 0.11291 0.9936
vn -0.14602 -0.25312 0.95635
vn -0.14343 -0.24799 0.95809
vn -0.15105 -0.26306 0.95288
vn 0.00098 0.11292 0.9936
vn 0.00099 0.11293 0.9936
vn -0.1517 -0.26435 0.95242
vn 0.4075 0.04772 0.91196
vn 0.4075 0.04772 0.91196
vn 0.40751 0.04772 0.91195
vn -0.40751 0.04773 0.91195
vn -0.40751 0.04773 0.91195
vn -0.40751 0.04773 0.91195
vn -0.99948 0.0175 0.02691
vn -0.99948 0.02413 0.02157
vn -0.99945 0.02151 0.02507
vn -0.99942 0.01761 0.02928
vn 0.9994 0.0176 0.02982
vn 0.99941 0.01907 0.02847
vn 0.99946 0.02148 0.02506
vn 0.99942 0.01758 0.02932
vn -0.99339 0.10542 -0.04552
vn -0.99215 0.11419 -0.05091
vn -0.99316 0.10705 -0.04652
vn -0.9758 -0.13618 0.17107
vn 0.99339 0.10539 -0.04552
vn 0.99317 0.10702 -0.04653
vn 0.99216 0.11416 -0.05092
vn 0.9758 -0.13621 0.17106
vn 0.95216 -0.03748 0.30329
vn 0.96831 -0.15747 0.19386
vn 0.99185 0.11622 -0.05219
vn 0.99115 0.12079 -0.05499
vn 0.99126 0.1201 -0.05457
vn -0.95216 -0.03745 0.30329
vn -0.96831 -0.15744 0.19387
vn -0.99125 0.12018 -0.05459
vn -0.99115 0.12082 -0.05499
vn -0.99185 0.11626 -0.05218
vn 0.99942 0.02624 0.0219
vn 0.99938 0.02981 0.01863
vn 0.99941 0.02974 0.01706
vn 0.99942 0.0276 0.01975
vn -0.99942 0.02907 0.01759
vn -0.99941 0.02977 0.01703
vn -0.99939 0.02982 0.01817
vn -0.99942 0.02763 0.01976
vn -0.99941 0.02627 0.02191
vn -0.99941 0.01907 0.02851
vn -0.99938 0.02984 0.01863
vn 0.99942 0.02907 0.01756
vn 0.99948 0.02413 0.02153
vn 0.99941 0.02974 0.01702
vn 0.99949 0.01747 0.0269
vn -0.9994 0.01763 0.02983
vn -0.40751 0.04773 0.91195
vn 0.40751 0.04772 0.91195
vn -1 2E-05 0
vn -0.99752 0.0083 -0.06991
vn 0.06319 -0.9379 -0.34112
vn 0.9892 0.05993 -0.13379
vn -0.00946 0.99931 0.03604
vn -1E-05 -0.99985 0.01756
vn 0.99896 0.04569 -0.00081
vn 1E-05 0.99985 -0.01756
vn -2E-05 -0.97032 -0.24181
vn 0 -0.24182 0.97032
vn 1E-05 0.69458 -0.71941
vn -1E-05 -0.71941 -0.69459
vn -1E-05 -0.69458 0.71941
vn 0.5041 0.59987 -0.62133
vn 1E-05 0.71941 0.69458
vn -1E-05 -0.27574 -0.96123
vn -2E-05 -0.96123 0.27574
vn 2E-05 0.97032 0.24182
vn 1E-05 0.27574 0.96123
vn 0 0.24182 -0.97032
vn 2E-05 0.96123 -0.27574
vn -0.7071 0.68613 0.171
vn -0.7071 0.50871 0.49114
vn -0.7071 0.19499 0.6797
vn -0.70711 -0.17098 0.68612
vn -0.70711 -0.49113 0.5087
vn -0.70711 -0.67969 0.19498
vn -0.70712 -0.68611 -0.17099
vn -0.70711 -0.50869 -0.49115
vn -0.70711 -0.19497 -0.67969
vn -0.70711 0.171 -0.68612
vn -0.7071 0.49115 -0.5087
vn -0.70709 0.67971 -0.19498
vn 0.70711 0.68612 0.17099
vn 0.70712 0.50869 0.49114
vn 0.70712 0.19497 0.67968
vn 0.7071 -0.171 0.68612
vn 0.7071 -0.49116 0.5087
vn 0.70709 -0.67971 0.19498
vn 0.70709 -0.68614 -0.17099
vn 0.7071 -0.50871 -0.49115
vn 0.7071 -0.19499 -0.6797
vn 0.70711 0.17098 -0.68612
vn 0.70711 0.49113 -0.50871
vn 0.70711 0.67969 -0.19498
vn -1 2E-05 0
vn 1 -2E-05 -0
vn 1 -2E-05 -0
vn 1 -2E-05 -0
vn 1 -2E-05 -0
vn 1 -2E-05 -0
vn 1 -2E-05 -0
vn 1 -2E-05 -0
vn 1 -2E-05 -0
vn 1 -2E-05 -0
vn 1 -2E-05 -0
vn 1 -2E-05 -0
vn 1 -2E-05 -0
vn 1 -2E-05 -0
vn 1 -2E-05 -0
vn 1 -2E-05 -0
vn 1 -2E-05 -0
vn 1 -2E-05 -0
vn 1 -2E-05 -0
vn 1 -2E-05 -0
vn 1 -2E-05 -0
vn 1 -2E-05 -0
vn 1 -2E-05 -0
vn 1 -2E-05 -0
vn 1 -2E-05 -0
vn 0.50407 -0.83018 0.23815
vn 0.50408 -0.62133 -0.59988
vn 0.5041 0.23814 0.83017
vn 0.50411 0.83016 -0.23815
vn 0.50409 -0.23815 -0.83017
vn 0.50409 -0.20885 0.83802
vn 0.50411 0.83801 0.20884
vn 0.50409 0.20884 -0.83802
vn 0.50408 -0.5999 0.62131
vn 0.50408 -0.83803 -0.20884
vn 0.5041 0.62131 0.59988
vn 0.56774 -0.01445 -0.82308
vn -0.56774 0.01445 0.82308
vn 0.82321 0.00998 0.56765
vn -2E-05 0.99985 -0.01756
vn -0.82321 -0.00998 -0.56765
vn 2E-05 -0.99985 0.01756
vn -0.56774 -0.01445 -0.82308
vn 0.56774 0.01445 0.82308
vn -0.82321 0.00998 0.56765
vn 2E-05 0.99985 -0.01756
vn 0.82321 -0.00998 -0.56765
vn -2E-05 -0.99985 0.01756
vn 2E-05 -0.97032 -0.24182
vn 0 -0.24182 0.97032
vn -1E-05 0.69458 -0.71942
vn 1E-05 -0.71941 -0.69458
vn 1E-05 -0.69458 0.71941
vn 0.50408 0.59988 -0.62132
vn -1E-05 0.71941 0.69458
vn 1E-05 -0.27574 -0.96123
vn 1E-05 -0.96123 0.27574
vn -2E-05 0.97032 0.24182
vn -1E-05 0.27574 0.96123
vn -0 0.24182 -0.97032
vn -1E-05 0.96123 -0.27574
vn -0.70712 0.68611 0.17099
vn -0.70712 0.50869 0.49114
vn -0.70711 0.19497 0.67969
vn -0.70711 -0.171 0.68612
vn -0.7071 -0.49115 0.5087
vn -0.7071 -0.67971 0.19498
vn -0.70709 -0.68613 -0.17099
vn -0.7071 -0.50871 -0.49115
vn -0.7071 -0.19499 -0.6797
vn -0.70711 0.17098 -0.68612
vn -0.70711 0.49113 -0.50871
vn -0.70712 0.67968 -0.19498
vn 0.70709 0.68613 0.17099
vn 0.7071 0.50871 0.49115
vn 0.7071 0.19499 0.6797
vn 0.70711 -0.17098 0.68612
vn 0.70711 -0.49113 0.50871
vn 0.70712 -0.67968 0.19498
vn 0.70712 -0.68611 -0.17099
vn 0.70712 -0.50869 -0.49114
vn 0.70711 -0.19497 -0.67969
vn 0.70711 0.171 -0.68612
vn 0.7071 0.49115 -0.5087
vn 0.7071 0.6797 -0.19498
vn -1 -2E-05 -0
vn 1 2E-05 0
vn 1 2E-05 0
vn 1 2E-05 0
vn 1 2E-05 0
vn 1 2E-05 0
vn 1 2E-05 0
vn 1 2E-05 0
vn 1 2E-05 0
vn 1 2E-05 0
vn 1 2E-05 0
vn 1 2E-05 0
vn 1 2E-05 0
vn 1 2E-05 0
vn 1 2E-05 0
vn 1 2E-05 0
vn 1 2E-05 0
vn 1 2E-05 0
vn 1 2E-05 0
vn 1 2E-05 0
vn 1 2E-05 0
vn 1 2E-05 0
vn 1 2E-05 0
vn 0.5041 -0.83016 0.23815
vn 0.5041 -0.62132 -0.59987
vn 0.50408 0.23815 0.83017
vn 0.50408 0.83018 -0.23814
vn 0.5041 -0.23813 -0.83017
vn 0.50409 -0.20884 0.83802
vn 0.50408 0.83803 0.20885
vn 0.50409 0.20885 -0.83802
vn 0.5041 -0.59987 0.62133
vn 0.5041 -0.83801 -0.20885
vn 0.50408 0.62133 0.59988
vn -2E-05 -0.97032 -0.24182
vn -0 -0.24182 0.97032
vn 1E-05 0.69458 -0.71942
vn -1E-05 -0.71941 -0.69458
vn -1E-05 -0.69458 0.71941
vn -0.50408 0.59988 -0.62132
vn 1E-05 0.71941 0.69458
vn -1E-05 -0.27574 -0.96123
vn -1E-05 -0.96123 0.27574
vn 2E-05 0.97032 0.24182
vn 1E-05 0.27574 0.96123
vn 0 0.24182 -0.97032
vn 1E-05 0.96123 -0.27574
vn 0.70712 0.68611 0.17099
vn 0.70712 0.50869 0.49114
vn 0.70711 0.19497 0.67969
vn 0.70711 -0.171 0.68612
vn 0.7071 -0.49115 0.5087
vn 0.7071 -0.67971 0.19498
vn 0.70709 -0.68613 -0.17099
vn 0.7071 -0.50871 -0.49115
vn 0.7071 -0.19499 -0.6797
vn 0.70711 0.17098 -0.68612
vn 0.70711 0.49113 -0.50871
vn 0.70712 0.67968 -0.19498
vn -0.7071 0.68613 0.17099
vn -0.7071 0.50871 0.49115
vn -0.7071 0.19499 0.6797
vn -0.70711 -0.17098 0.68612
vn -0.70711 -0.49113 0.50871
vn -0.70712 -0.67968 0.19498
vn -0.70712 -0.68611 -0.17099
vn -0.70712 -0.50869 -0.49114
vn -0.70711 -0.19497 -0.67969
vn -0.70711 0.171 -0.68612
vn -0.7071 0.49115 -0.5087
vn -0.7071 0.6797 -0.19498
vn 1 -2E-05 -0
vn -1 2E-05 0
vn -1 2E-05 0
vn -1 2E-05 0
vn -1 2E-05 0
vn -1 2E-05 0
vn -1 2E-05 0
vn -1 2E-05 0
vn -1 2E-05 0
vn -1 2E-05 0
vn -1 2E-05 0
vn -1 2E-05 0
vn -1 2E-05 0
vn -1 2E-05 0
vn -1 2E-05 0
vn -1 2E-05 0
vn -1 2E-05 0
vn -1 2E-05 0
vn -1 2E-05 0
vn -1 2E-05 0
vn -1 2E-05 0
vn -0.5041 -0.83016 0.23815
vn -0.5041 -0.62132 -0.59987
vn -0.50408 0.23815 0.83017
vn -0.50408 0.83018 -0.23814
vn -0.5041 -0.23814 -0.83017
vn -0.50409 -0.20884 0.83802
vn -0.50408 0.83803 0.20885
vn -0.50409 0.20885 -0.83802
vn -0.5041 -0.59987 0.62133
vn -0.5041 -0.83801 -0.20885
vn -0.50408 0.62133 0.59988
vn -0.38909 -0.2952 0.87262
vn -0.44513 -0.55826 0.70015
vn -1E-05 -0.64802 0.76163
vn -0 -0.32234 0.94662
vn 0.38909 -0.29521 0.87262
vn 0.44511 -0.55827 0.70014
vn 0.82794 -0.24238 0.50574
vn 0.77013 -0.19267 0.6081
vn 0.40874 0.01602 0.91251
vn 0.80965 0.01029 0.58682
vn -0.40874 0.01603 0.91251
vn 0 0.01756 0.99985
vn -0.80965 0.01032 0.58683
vn -0.77013 -0.19265 0.6081
vn 0.94688 0.00563 0.32154
vn -0.82794 -0.24235 0.50574
vn -0.94688 0.00566 0.32155
vt 0.03155 0.4007
vt 0.04424 0.41119
vt 0.03207 0.42406
vt 0.02114 0.41083
vt 0.15079 0.18497
vt 0.07069 0.24338
vt 0.05466 0.22545
vt 0.13792 0.16486
vt 0.11774 0.35155
vt 0.09142 0.35102
vt 0.08985 0.33044
vt 0.11589 0.32613
vt 0.10763 0.40095
vt 0.08341 0.39117
vt 0.08919 0.37145
vt 0.11492 0.37675
vt 0.09767 0.28032
vt 0.07606 0.29235
vt 0.06516 0.27566
vt 0.08491 0.26137
vt 0.05314 0.47782
vt 0.0338 0.45775
vt 0.04973 0.4424
vt 0.069 0.45941
vt 0.09585 0.42189
vt 0.0745 0.40942
vt 0.10934 0.30144
vt 0.08459 0.31064
vt 0.05198 0.2602
vt 0.03617 0.2456
vt 0.08312 0.44103
vt 0.06323 0.42639
vt 0.16304 0.4984
vt 0.17741 0.47922
vt 0.1645 0.20452
vt 0.14933 0.51801
vt 0.17877 0.2236
vt 0.13669 0.53798
vt 0.19233 0.46013
vt 0.19347 0.2424
vt 0.50295 0.03059
vt 0.2317 0.28481
vt 0.22222 0.27479
vt 0.50056 0.02827
vt 0.48308 0.00719
vt 0.48102 0.0015
vt 0.49354 0.02066
vt 0.50589 0.03301
vt 0.24241 0.29573
vt 0.48598 0.01215
vt 0.48952 0.01657
vt 0.49349 0.68233
vt 0.22115 0.42762
vt 0.50052 0.67468
vt 0.48946 0.68644
vt 0.48592 0.69088
vt 0.50292 0.67236
vt 0.23065 0.41756
vt 0.24139 0.4066
vt 0.50586 0.66993
vt 0.48302 0.69587
vt 0.48097 0.70158
vt 0.50963 0.02221
vt 0.50789 0.02064
vt 0.4955 0.00438
vt 0.49455 0.00022
vt 0.51173 0.02371
vt 0.4974 0.0082
vt 0.50293 0.68833
vt 0.50788 0.68233
vt 0.49997 0.01162
vt 0.50295 0.01466
vt 0.49996 0.69138
vt 0.49739 0.69482
vt 0.50962 0.68076
vt 0.51173 0.67924
vt 0.49549 0.69866
vt 0.49455 0.70283
vt 0.48215 0.7221
vt 0.47886 0.7202
vt 0.47696 0.71691
vt 0.47696 0.71312
vt 0.47742 0.70621
vt 0.47876 0.7045
vt 0.48094 0.70342
vt 0.48336 0.70327
vt 0.48538 0.70408
vt 0.48923 0.70983
vt 0.49112 0.71312
vt 0.49112 0.71691
vt 0.48923 0.7202
vt 0.48594 0.7221
vt 0.05078 0.33713
vt 0.05286 0.35002
vt 0.05029 0.36325
vt 0.04086 0.37383
vt 0.02711 0.37726
vt 0.01349 0.37335
vt 0.00364 0.36316
vt 0.00022 0.34941
vt 0.00412 0.33579
vt 0.01432 0.32594
vt 0.02792 0.32282
vt 0.04127 0.32691
vt 0.06622 0.33402
vt 0.06768 0.35034
vt 0.06577 0.36641
vt 0.0611 0.38224
vt 0.04618 0.37658
vt 0.03428 0.29951
vt 0.04626 0.28977
vt 0.0553 0.30335
vt 0.04172 0.311
vt 0.01624 0.43579
vt 0.00854 0.41885
vt 0.05387 0.39724
vt 0.03991 0.38916
vt 0.06202 0.31825
vt 0.04727 0.32367
vt 0.01382 0.28254
vt 0.02011 0.26746
vt 0.03479 0.27776
vt 0.02501 0.28969
vt 0.64148 0.64928
vt 0.64134 0.58283
vt 0.65762 0.5828
vt 0.65777 0.64924
vt 0.91027 0.64652
vt 0.91072 0.58184
vt 0.94451 0.582
vt 0.94381 0.64794
vt 0.8027 0.64878
vt 0.7485 0.64901
vt 0.74827 0.58258
vt 0.80236 0.5824
vt 0.69298 0.58272
vt 0.69315 0.64916
vt 0.96589 0.58213
vt 0.96519 0.64818
vt 0.86454 0.6484
vt 0.86387 0.58206
vt 0.96337 0.65707
vt 0.94943 0.66559
vt 0.85931 0.66579
vt 0.80583 0.66493
vt 0.91394 0.66668
vt 0.8021 0.45042
vt 0.86375 0.45035
vt 0.91059 0.45033
vt 0.94463 0.45033
vt 0.96608 0.45034
vt 0.6574 0.45061
vt 0.69275 0.45057
vt 0.74802 0.4505
vt 0.64112 0.45063
vt 0.64104 0.34974
vt 0.65732 0.34973
vt 0.91055 0.34963
vt 0.94462 0.34962
vt 0.74794 0.3497
vt 0.80203 0.34967
vt 0.69267 0.34972
vt 0.96608 0.34961
vt 0.86369 0.34965
vt 0.64125 0.0502
vt 0.65754 0.05022
vt 0.65744 0.11666
vt 0.64116 0.11664
vt 0.91004 0.05275
vt 0.94358 0.0513
vt 0.94433 0.11723
vt 0.91054 0.11742
vt 0.80247 0.05057
vt 0.80217 0.11695
vt 0.74809 0.11681
vt 0.74827 0.05038
vt 0.69292 0.05027
vt 0.6928 0.11671
vt 0.96496 0.05104
vt 0.96571 0.11709
vt 0.86431 0.0509
vt 0.86369 0.11724
vt 0.94918 0.03364
vt 0.96313 0.04216
vt 0.80558 0.03442
vt 0.85906 0.03351
vt 0.91369 0.03258
vt 0.86367 0.24895
vt 0.80202 0.24893
vt 0.91052 0.24894
vt 0.966 0.24888
vt 0.94455 0.24891
vt 0.69267 0.24887
vt 0.65732 0.24885
vt 0.74794 0.2489
vt 0.64104 0.24884
vt 0.30863 0.70327
vt 0.23312 0.7765
vt 0.25546 0.79531
vt 0.31472 0.70839
vt 0.32916 0.71447
vt 0.30846 0.8176
vt 0.33691 0.82043
vt 0.33691 0.71524
vt 0.32156 0.71212
vt 0.28056 0.809
vt 0.41286 0.70327
vt 0.41895 0.70839
vt 0.35969 0.79531
vt 0.33735 0.7765
vt 0.43339 0.71447
vt 0.44114 0.71524
vt 0.44114 0.82043
vt 0.41269 0.8176
vt 0.42578 0.71212
vt 0.38479 0.809
vt 0.12392 0.78676
vt 0.12458 0.77516
vt 0.12353 0.77056
vt 0.12208 0.79854
vt 0.11862 0.8202
vt 0.12154 0.76198
vt 0.11718 0.77465
vt 0.11667 0.78658
vt 0.14272 0.78138
vt 0.14251 0.76664
vt 0.14204 0.76096
vt 0.12278 0.85934
vt 0.1422 0.86467
vt 0.14093 0.82258
vt 0.12074 0.82256
vt 0.12356 0.87237
vt 0.14285 0.87963
vt 0.14218 0.79563
vt 0.12409 0.887
vt 0.14365 0.89643
vt 0.21715 0.93172
vt 0.21536 0.90672
vt 0.21657 0.82124
vt 0.21672 0.78028
vt 0.21521 0.88436
vt 0.21577 0.73639
vt 0.21445 0.72775
vt 0.21667 0.7586
vt 0.23252 0.75371
vt 0.23139 0.72995
vt 0.22985 0.72069
vt 0.23065 0.8885
vt 0.23265 0.82089
vt 0.23069 0.91244
vt 0.23269 0.77698
vt 0.23269 0.93918
vt 0.22694 0.70327
vt 0.21195 0.71146
vt 0.14115 0.75019
vt 0.12293 0.76117
vt 0.00747 0.78676
vt 0.00563 0.79854
vt 0.00708 0.77056
vt 0.00813 0.77516
vt 0.00217 0.8202
vt 0.00022 0.78658
vt 0.00073 0.77465
vt 0.00508 0.76198
vt 0.02606 0.76664
vt 0.02627 0.78138
vt 0.02559 0.76096
vt 0.00633 0.85934
vt 0.00429 0.82256
vt 0.02447 0.82258
vt 0.02575 0.86467
vt 0.00711 0.87237
vt 0.0264 0.87963
vt 0.02573 0.79563
vt 0.00764 0.887
vt 0.0272 0.89643
vt 0.09891 0.90672
vt 0.1007 0.93172
vt 0.10027 0.78028
vt 0.10012 0.82124
vt 0.09876 0.88436
vt 0.098 0.72775
vt 0.09932 0.73639
vt 0.10022 0.7586
vt 0.11494 0.72995
vt 0.11607 0.75371
vt 0.11339 0.72069
vt 0.1162 0.82089
vt 0.1142 0.8885
vt 0.11424 0.91244
vt 0.11624 0.77698
vt 0.11624 0.93918
vt 0.0955 0.71146
vt 0.11049 0.70327
vt 0.0247 0.75019
vt 0.00647 0.76117
vt 0.60992 0.07676
vt 0.58921 0.0977
vt 0.58523 0.09775
vt 0.59182 0.09138
vt 0.59547 0.09507
vt 0.58908 0.10162
vt 0.56796 0.62579
vt 0.55181 0.62887
vt 0.54588 0.62295
vt 0.56303 0.62086
vt 0.57864 0.104
vt 0.55485 0.10287
vt 0.56273 0.09487
vt 0.58091 0.63775
vt 0.56726 0.64335
vt 0.55809 0.61593
vt 0.53995 0.61702
vt 0.52957 0.60478
vt 0.54952 0.60569
vt 0.57064 0.08701
vt 0.59185 0.06811
vt 0.56817 0.11807
vt 0.54094 0.11952
vt 0.44775 0.12377
vt 0.30533 0.23571
vt 0.44529 0.09626
vt 0.4703 0.09781
vt 0.49569 0.07254
vt 0.47341 0.06823
vt 0.50971 0.03345
vt 0.52852 0.04126
vt 0.47727 0.62081
vt 0.45879 0.62193
vt 0.3554 0.51879
vt 0.46062 0.60161
vt 0.52013 0.6627
vt 0.50623 0.6684
vt 0.47953 0.64265
vt 0.49599 0.63951
vt 0.45934 0.08225
vt 0.48299 0.08517
vt 0.46916 0.63229
vt 0.48663 0.63016
vt 0.58258 0.1081
vt 0.51427 0.77369
vt 0.52839 0.77185
vt 0.52809 0.7788
vt 0.5148 0.77943
vt 0.54811 0.76948
vt 0.54809 0.78073
vt 0.52754 0.76653
vt 0.549 0.76058
vt 0.52523 0.76025
vt 0.54475 0.75008
vt 0.549 0.78971
vt 0.52781 0.78334
vt 0.5135 0.76924
vt 0.51216 0.76312
vt 0.51498 0.78376
vt 0.82422 0.90234
vt 0.05078 0.91797
vt 0.07422 0.91797
vt 0.32976 0.8004
vt 0.38245 0.86676
vt 0.33838 0.88092
vt 0.30326 0.80535
vt 0.27043 0.79577
vt 0.22023 0.86441
vt 0.17669 0.86063
vt 0.24725 0.79496
vt 0.27041 0.67913
vt 0.24589 0.68051
vt 0.32569 0.68386
vt 0.29783 0.68333
vt 0.29759 0.67746
vt 0.29759 0.79959
vt 0.35018 0.68431
vt 0.35276 0.79856
vt 0.1696 0.68428
vt 0.26488 0.87691
vt 0.42608 0.86155
vt 0.42642 0.68509
usemtl mat0
f 133/133/71 134/134/72 135/135/73
f 135/135/73 136/136/74 133/133/71
f 137/137/75 138/138/76 139/139/77
f 139/139/77 140/140/78 137/137/75
f 141/141/79 142/142/80 143/143/81
f 143/143/81 144/144/82 141/141/79
f 145/145/83 146/146/84 147/147/85
f 147/147/85 148/148/86 145/145/83
f 149/149/87 150/150/88 151/151/89
f 151/151/89 152/152/90 149/149/87
f 153/153/77 154/154/91 155/155/92
f 155/155/92 156/156/93 153/153/77
f 157/157/94 158/158/95 146/146/84
f 146/146/84 145/145/83 157/157/94
f 159/159/96 160/160/97 150/150/88
f 150/150/88 149/149/87 159/159/96
f 138/138/76 161/161/98 162/162/91
f 162/162/91 139/139/77 138/138/76
f 163/163/99 164/164/100 158/158/95
f 158/158/95 157/157/94 163/163/99
f 144/144/82 143/143/81 160/160/97
f 160/160/97 159/159/96 144/144/82
f 148/148/86 147/147/85 142/142/80
f 142/142/80 141/141/79 148/148/86
f 152/152/90 151/151/89 161/161/98
f 161/161/98 138/138/76 152/152/90
f 156/156/93 155/155/92 164/164/100
f 164/164/100 163/163/99 156/156/93
f 165/165/101 163/163/99 157/157/94
f 157/157/94 166/166/102 165/165/101
f 167/167/103 152/152/90 138/138/76
f 138/138/76 137/137/75 167/167/103
f 168/168/104 156/156/93 163/163/99
f 163/163/99 165/165/101 168/168/104
f 169/169/105 149/149/87 152/152/90
f 152/152/90 167/167/103 169/169/105
f 170/170/78 153/153/77 156/156/93
f 156/156/93 168/168/104 170/170/78
f 166/166/102 157/157/94 145/145/83
f 145/145/83 171/171/106 166/166/102
f 172/172/107 159/159/96 149/149/87
f 149/149/87 169/169/105 172/172/107
f 173/173/108 174/174/109 175/175/110
f 175/175/110 176/176/111 173/173/108
f 177/177/112 137/137/75 140/140/78
f 140/140/78 178/178/113 177/177/112
f 176/176/111 175/175/110 172/172/107
f 172/172/107 179/179/114 176/176/111
f 180/180/115 181/181/116 174/174/109
f 174/174/109 173/173/108 180/180/115
f 182/182/117 167/167/103 137/137/75
f 137/137/75 177/177/112 182/182/117
f 183/183/118 169/169/105 167/167/103
f 167/167/103 182/182/117 183/183/118
f 184/184/119 171/171/106 185/185/120
f 185/185/120 186/186/121 184/184/119
f 179/179/114 172/172/107 169/169/105
f 169/169/105 183/183/118 179/179/114
f 187/187/122 166/166/102 171/171/106
f 171/171/106 184/184/119 187/187/122
f 188/188/123 165/165/101 166/166/102
f 166/166/102 187/187/122 188/188/123
f 189/189/124 190/190/125 191/191/116
f 191/191/116 192/192/115 189/189/124
f 193/193/126 168/168/104 165/165/101
f 165/165/101 188/188/123 193/193/126
f 186/186/121 185/185/120 190/190/125
f 190/190/125 189/189/124 186/186/121
f 194/194/113 170/170/78 168/168/104
f 168/168/104 193/193/126 194/194/113
f 195/195/127 173/173/108 176/176/111
f 176/176/111 196/196/128 195/195/127
f 197/197/129 177/177/112 178/178/113
f 178/178/113 198/198/130 197/197/129
f 199/199/131 180/180/115 173/173/108
f 173/173/108 195/195/127 199/199/131
f 200/200/132 182/182/117 177/177/112
f 177/177/112 197/197/129 200/200/132
f 201/201/133 184/184/119 186/186/121
f 186/186/121 202/202/134 201/201/133
f 203/203/135 183/183/118 182/182/117
f 182/182/117 200/200/132 203/203/135
f 204/204/136 179/179/114 183/183/118
f 183/183/118 203/203/135 204/204/136
f 205/205/137 187/187/122 184/184/119
f 184/184/119 201/201/133 205/205/137
f 196/196/128 176/176/111 179/179/114
f 179/179/114 204/204/136 196/196/128
f 206/206/138 188/188/123 187/187/122
f 187/187/122 205/205/137 206/206/138
f 207/207/139 189/189/124 192/192/115
f 192/192/115 208/208/131 207/207/139
f 209/209/140 193/193/126 188/188/123
f 188/188/123 206/206/138 209/209/140
f 202/202/134 186/186/121 189/189/124
f 189/189/124 207/207/139 202/202/134
f 210/210/130 194/194/113 193/193/126
f 193/193/126 209/209/140 210/210/130
f 211/211/140 212/212/138 213/213/137
f 213/213/137 214/214/133 215/215/134
f 215/215/134 216/216/139 217/217/131
f 217/217/131 218/218/127 219/219/128
f 219/219/128 220/220/136 221/221/135
f 221/221/135 222/222/132 223/223/129
f 223/223/129 224/224/130 211/211/140
f 211/211/140 213/213/137 215/215/134
f 215/215/134 217/217/131 219/219/128
f 219/219/128 221/221/135 223/223/129
f 223/223/129 211/211/140 215/215/134
f 215/215/134 219/219/128 223/223/129
f 225/225/141 226/226/142 227/227/143
f 227/227/143 228/228/144 229/229/145
f 229/229/145 230/230/71 231/231/74
f 231/231/74 232/232/146 233/233/147
f 233/233/147 234/234/148 235/235/149
f 235/235/149 236/236/150 225/225/141
f 225/225/141 227/227/143 229/229/145
f 229/229/145 231/231/74 233/233/147
f 233/233/147 235/235/149 225/225/141
f 225/225/141 229/229/145 233/233/147
f 225/225/141 237/237/151 238/238/152
f 238/238/152 226/226/142 225/225/141
f 227/227/143 239/239/153 240/240/154
f 240/240/154 241/241/144 227/227/143
f 242/242/148 243/243/155 244/244/156
f 244/244/156 245/245/149 242/242/148
f 136/136/74 135/135/73 246/246/157
f 246/246/157 247/247/146 136/136/74
f 241/241/144 240/240/154 248/248/158
f 248/248/158 249/249/145 241/241/144
f 245/245/149 244/244/156 250/250/159
f 250/250/159 251/251/150 245/245/149
f 252/252/146 253/253/157 254/254/160
f 254/254/160 255/255/147 252/252/146
f 249/249/145 248/248/158 134/134/72
f 134/134/72 133/133/71 249/249/145
f 251/251/150 250/250/159 237/237/151
f 237/237/151 225/225/141 251/251/150
f 226/226/142 238/238/152 239/239/153
f 239/239/153 227/227/143 226/226/142
f 255/255/147 254/254/160 243/243/155
f 243/243/155 242/242/148 255/255/147
f 155/155/92 135/135/73 134/134/72
f 134/134/72 164/164/100 155/155/92
f 151/151/89 243/243/155 254/254/160
f 254/254/160 161/161/98 151/151/89
f 147/147/85 239/239/153 238/238/152
f 238/238/152 142/142/80 147/147/85
f 143/143/81 237/237/151 250/250/159
f 250/250/159 160/160/97 143/143/81
f 164/164/100 134/134/72 248/248/158
f 248/248/158 158/158/95 164/164/100
f 161/161/98 254/254/160 253/253/157
f 253/253/157 162/162/91 161/161/98
f 160/160/97 250/250/159 244/244/156
f 244/244/156 150/150/88 160/160/97
f 158/158/95 248/248/158 240/240/154
f 240/240/154 146/146/84 158/158/95
f 154/154/91 246/246/157 135/135/73
f 135/135/73 155/155/92 154/154/91
f 150/150/88 244/244/156 243/243/155
f 243/243/155 151/151/89 150/150/88
f 146/146/84 240/240/154 239/239/153
f 239/239/153 147/147/85 146/146/84
f 142/142/80 238/238/152 237/237/151
f 237/237/151 143/143/81 142/142/80
f 256/256/161 257/257/162 258/258/163
f 258/258/163 259/259/164 256/256/161
f 260/260/165 261/261/166 262/262/167
f 262/262/167 263/263/168 260/260/165
f 264/264/169 265/265/170 266/266/171
f 266/266/171 267/267/172 264/264/169
f 259/259/164 258/258/163 268/268/173
f 268/268/173 269/269/174 259/259/164
f 263/263/168 262/262/167 270/270/162
f 270/270/162 271/271/161 263/263/168
f 272/272/175 273/273/176 261/261/166
f 261/261/166 260/260/165 272/272/175
f 264/264/169 267/267/172 273/273/176
f 273/273/176 272/272/175 264/264/169
f 272/272/175 260/260/165 263/263/168
f 263/263/168 274/274/161 275/275/164
f 276/276/170 277/277/169 272/272/175
f 272/272/175 263/263/168 275/275/164
f 278/278/174 276/276/170 272/272/175
f 272/272/175 275/275/164 278/278/174
f 267/267/172 279/279/177 280/280/178
f 280/280/178 273/273/176 267/267/172
f 273/273/176 280/280/178 281/281/179
f 281/281/179 261/261/166 273/273/176
f 262/262/167 282/282/180 283/283/181
f 283/283/181 270/270/162 262/262/167
f 258/258/163 284/284/182 285/285/183
f 285/285/183 268/268/173 258/258/163
f 267/267/172 266/266/171 286/286/184
f 286/286/184 279/279/177 267/267/172
f 261/261/166 281/281/179 282/282/180
f 282/282/180 262/262/167 261/261/166
f 257/257/162 287/287/181 284/284/182
f 284/284/182 258/258/163 257/257/162
f 287/287/181 288/288/185 289/289/186
f 289/289/186 284/284/182 287/287/181
f 281/281/179 290/290/187 291/291/188
f 291/291/188 282/282/180 281/281/179
f 279/279/177 286/286/184 292/292/189
f 292/292/189 293/293/190 279/279/177
f 284/284/182 289/289/186 294/294/191
f 294/294/191 285/285/183 284/284/182
f 282/282/180 291/291/188 295/295/185
f 295/295/185 283/283/181 282/282/180
f 280/280/178 296/296/192 290/290/187
f 290/290/187 281/281/179 280/280/178
f 279/279/177 293/293/190 296/296/192
f 296/296/192 280/280/178 279/279/177
f 286/286/184 285/285/183 294/294/191
f 294/294/191 292/292/189 286/286/184
f 266/266/171 268/268/173 285/285/183
f 285/285/183 286/286/184 266/266/171
f 265/265/170 269/269/174 268/268/173
f 268/268/173 266/266/171 265/265/170
f 297/297/193 298/298/194 299/299/195
f 299/299/195 300/300/196 297/297/193
f 301/301/197 302/302/198 303/303/199
f 303/303/199 304/304/200 301/301/197
f 305/305/201 306/306/202 307/307/203
f 307/307/203 308/308/204 305/305/201
f 298/298/194 309/309/205 310/310/206
f 310/310/206 299/299/195 298/298/194
f 302/302/198 311/311/193 312/312/196
f 312/312/196 303/303/199 302/302/198
f 313/313/207 301/301/197 304/304/200
f 304/304/200 314/314/208 313/313/207
f 305/305/201 313/313/207 314/314/208
f 314/314/208 306/306/202 305/305/201
f 315/315/194 316/316/193 302/302/198
f 302/302/198 301/301/197 313/313/207
f 313/313/207 317/317/201 318/318/204
f 319/319/205 315/315/194 302/302/198
f 302/302/198 313/313/207 318/318/204
f 318/318/204 319/319/205 302/302/198
f 306/306/202 314/314/208 320/320/209
f 320/320/209 321/321/210 306/306/202
f 314/314/208 304/304/200 322/322/211
f 322/322/211 320/320/209 314/314/208
f 303/303/199 312/312/196 323/323/212
f 323/323/212 324/324/213 303/303/199
f 299/299/195 310/310/206 325/325/214
f 325/325/214 326/326/215 299/299/195
f 306/306/202 321/321/210 327/327/216
f 327/327/216 307/307/203 306/306/202
f 304/304/200 303/303/199 324/324/213
f 324/324/213 322/322/211 304/304/200
f 300/300/196 299/299/195 326/326/215
f 326/326/215 328/328/212 300/300/196
f 328/328/212 326/326/215 289/289/186
f 289/289/186 288/288/185 328/328/212
f 322/322/211 324/324/213 291/291/188
f 291/291/188 290/290/187 322/322/211
f 321/321/210 293/293/190 292/292/189
f 292/292/189 327/327/216 321/321/210
f 326/326/215 325/325/214 294/294/191
f 294/294/191 289/289/186 326/326/215
f 324/324/213 323/323/212 295/295/185
f 295/295/185 291/291/188 324/324/213
f 320/320/209 322/322/211 290/290/187
f 290/290/187 296/296/192 320/320/209
f 321/321/210 320/320/209 296/296/192
f 296/296/192 293/293/190 321/321/210
f 327/327/216 292/292/189 294/294/191
f 294/294/191 325/325/214 327/327/216
f 307/307/203 327/327/216 325/325/214
f 325/325/214 310/310/206 307/307/203
f 308/308/204 307/307/203 310/310/206
f 310/310/206 309/309/205 308/308/204
f 329/329/217 330/330/217 331/331/217
f 331/331/217 332/332/217 329/329/217
f 333/333/218 334/334/218 335/335/218
f 335/335/218 336/336/218 333/333/218
f 337/337/219 338/338/219 334/334/219
f 334/334/219 333/333/219 337/337/219
f 332/332/220 331/331/220 338/338/220
f 338/338/220 337/337/220 332/332/220
f 339/339/221 340/340/221 341/341/221
f 341/341/221 342/342/221 339/339/221
f 343/343/222 344/344/222 345/345/222
f 345/345/222 346/346/222 343/343/222
f 347/347/223 343/343/223 346/346/223
f 346/346/223 348/348/223 347/347/223
f 340/340/224 347/347/224 348/348/224
f 348/348/224 341/341/224 340/340/224
f 349/349/225 350/350/225 351/351/226
f 351/351/226 352/352/227 349/349/225
f 353/353/228 354/354/229 355/355/230
f 355/355/230 356/356/230 353/353/228
f 349/349/231 357/357/232 358/358/233
f 358/358/233 350/350/231 349/349/231
f 350/350/234 358/358/235 359/359/236
f 359/359/236 351/351/237 350/350/234
f 360/360/238 361/361/239 362/362/240
f 362/362/240 363/363/238 360/360/238
f 364/364/241 365/365/242 361/361/243
f 361/361/243 360/360/241 364/364/241
f 363/363/244 362/362/245 366/366/246
f 366/366/246 352/352/247 363/363/244
f 367/367/248 368/368/249 365/365/250
f 365/365/250 364/364/248 367/367/248
f 368/368/249 369/369/251 370/370/252
f 370/370/252 365/365/250 368/368/249
f 362/362/245 371/371/253 372/372/254
f 372/372/254 366/366/246 362/362/245
f 365/365/242 370/370/255 373/373/256
f 373/373/256 361/361/243 365/365/242
f 361/361/239 373/373/257 371/371/258
f 371/371/258 362/362/240 361/361/239
f 358/358/235 374/374/259 375/375/260
f 375/375/260 359/359/236 358/358/235
f 357/357/232 376/376/261 374/374/262
f 374/374/262 358/358/233 357/357/232
f 376/376/261 377/377/263 378/378/263
f 378/378/263 374/374/262 376/376/261
f 374/374/259 378/378/264 379/379/265
f 379/379/265 375/375/260 374/374/259
f 373/373/257 380/380/266 381/381/266
f 381/381/266 371/371/258 373/373/257
f 370/370/255 382/382/267 380/380/267
f 380/380/267 373/373/256 370/370/255
f 371/371/253 381/381/268 383/383/269
f 383/383/269 372/372/254 371/371/253
f 369/369/251 384/384/270 382/382/270
f 382/382/270 370/370/252 369/369/251
f 372/372/254 383/383/269 377/377/271
f 377/377/271 376/376/272 372/372/254
f 375/375/260 379/379/265 385/385/273
f 385/385/273 386/386/274 375/375/260
f 359/359/236 375/375/260 386/386/274
f 386/386/274 387/387/275 359/359/236
f 366/366/246 372/372/254 376/376/272
f 376/376/272 357/357/276 366/366/246
f 352/352/247 366/366/246 357/357/276
f 357/357/276 349/349/277 352/352/247
f 351/351/237 359/359/236 387/387/275
f 387/387/275 388/388/278 351/351/237
f 352/352/227 351/351/226 354/354/229
f 354/354/229 353/353/228 352/352/227
f 389/389/279 390/390/280 391/391/281
f 391/391/281 392/392/279 389/389/279
f 393/393/282 394/394/283 395/395/283
f 395/395/283 396/396/284 393/393/282
f 389/389/285 392/392/285 397/397/286
f 397/397/286 398/398/287 389/389/285
f 392/392/288 391/391/289 399/399/290
f 399/399/290 397/397/291 392/392/288
f 400/400/292 401/401/292 402/402/293
f 402/402/293 403/403/294 400/400/292
f 404/404/295 400/400/295 403/403/296
f 403/403/296 405/405/297 404/404/295
f 401/401/298 390/390/299 406/406/300
f 406/406/300 402/402/301 401/401/298
f 407/407/302 404/404/302 405/405/303
f 405/405/303 408/408/304 407/407/302
f 408/408/304 405/405/303 409/409/305
f 409/409/305 410/410/306 408/408/304
f 402/402/301 406/406/300 411/411/307
f 411/411/307 412/412/308 402/402/301
f 405/405/297 403/403/296 413/413/309
f 413/413/309 409/409/310 405/405/297
f 403/403/294 402/402/293 412/412/311
f 412/412/311 413/413/312 403/403/294
f 397/397/291 399/399/290 414/414/313
f 414/414/313 415/415/314 397/397/291
f 398/398/287 397/397/286 415/415/315
f 415/415/315 416/416/316 398/398/287
f 416/416/316 415/415/315 417/417/317
f 417/417/317 418/418/317 416/416/316
f 415/415/314 414/414/313 419/419/318
f 419/419/318 417/417/319 415/415/314
f 413/413/312 412/412/311 420/420/320
f 420/420/320 421/421/320 413/413/312
f 409/409/310 413/413/309 421/421/321
f 421/421/321 422/422/321 409/409/310
f 412/412/308 411/411/307 423/423/322
f 423/423/322 420/420/323 412/412/308
f 410/410/306 409/409/305 422/422/324
f 422/422/324 424/424/324 410/410/306
f 411/411/307 416/416/325 418/418/326
f 418/418/326 423/423/322 411/411/307
f 414/414/313 425/425/327 426/426/328
f 426/426/328 419/419/318 414/414/313
f 399/399/290 427/427/329 425/425/327
f 425/425/327 414/414/313 399/399/290
f 406/406/300 398/398/330 416/416/325
f 416/416/325 411/411/307 406/406/300
f 390/390/299 389/389/331 398/398/330
f 398/398/330 406/406/300 390/390/299
f 391/391/289 428/428/332 427/427/329
f 427/427/329 399/399/290 391/391/289
f 390/390/280 393/393/282 396/396/284
f 396/396/284 391/391/281 390/390/280
f 429/429/333 430/430/334 431/431/335
f 431/431/335 432/432/333 429/429/333
f 433/433/336 434/434/337 430/430/338
f 430/430/338 429/429/336 433/433/336
f 435/435/339 436/436/340 437/437/341
f 437/437/341 438/438/342 435/435/339
f 439/439/343 440/440/344 441/441/345
f 441/441/345 431/431/346 439/439/343
f 442/442/347 443/443/348 436/436/349
f 436/436/349 435/435/347 442/442/347
f 444/444/350 445/445/350 446/446/350
f 446/446/350 447/447/350 444/444/350
f 432/432/351 448/448/352 449/449/353
f 449/449/353 429/429/351 432/432/351
f 450/450/354 451/451/354 440/440/354
f 440/440/354 439/439/354 450/450/354
f 452/452/355 453/453/355 454/454/355
f 454/454/355 455/455/355 452/452/355
f 451/451/356 452/452/356 455/455/356
f 455/455/356 440/440/356 451/451/356
f 456/456/357 457/457/358 458/458/358
f 458/458/358 459/459/359 456/456/357
f 448/448/352 456/456/357 459/459/359
f 459/459/359 449/449/353 448/448/352
f 460/460/360 461/461/360 462/462/360
f 462/462/360 463/463/360 460/460/360
f 445/445/361 460/460/361 463/463/361
f 463/463/361 446/446/361 445/445/361
f 464/464/362 465/465/363 466/466/363
f 466/466/363 467/467/364 464/464/362
f 443/443/348 464/464/362 467/467/364
f 467/467/364 436/436/349 443/443/348
f 455/455/365 454/454/366 468/468/367
f 468/468/367 469/469/368 455/455/365
f 440/440/344 455/455/365 469/469/368
f 469/469/368 441/441/345 440/440/344
f 467/467/369 466/466/370 470/470/371
f 470/470/371 471/471/372 467/467/369
f 436/436/340 467/467/369 471/471/372
f 471/471/372 437/437/341 436/436/340
f 437/437/341 471/471/372 460/460/373
f 460/460/373 445/445/374 437/437/341
f 471/471/372 470/470/371 461/461/375
f 461/461/375 460/460/373 471/471/372
f 441/441/345 469/469/368 456/456/376
f 456/456/376 448/448/377 441/441/345
f 469/469/368 468/468/367 457/457/378
f 457/457/378 456/456/376 469/469/368
f 431/431/346 441/441/345 448/448/377
f 448/448/377 432/432/379 431/431/346
f 438/438/342 437/437/341 445/445/374
f 445/445/374 444/444/380 438/438/342
f 434/434/337 472/472/381 450/450/381
f 450/450/381 430/430/338 434/434/337
f 430/430/334 450/450/382 439/439/382
f 439/439/382 431/431/335 430/430/334
f 473/473/383 474/474/383 475/475/383
f 475/475/383 476/476/383 473/473/383
f 474/474/384 477/477/384 478/478/384
f 478/478/384 475/475/384 474/474/384
f 479/479/385 480/480/385 477/477/385
f 477/477/385 474/474/385 479/479/385
f 481/481/386 482/482/386 480/480/386
f 480/480/386 479/479/386 481/481/386
f 475/475/387 478/478/387 483/483/387
f 483/483/387 484/484/387 475/475/387
f 485/485/388 479/479/388 474/474/388
f 474/474/388 473/473/388 485/485/388
f 486/486/389 481/481/389 479/479/389
f 479/479/389 485/485/389 486/486/389
f 476/476/390 475/475/390 484/484/390
f 484/484/390 487/487/390 476/476/390
f 488/488/391 489/488/391 490/488/391
f 490/488/391 491/488/391 488/488/391
f 492/488/392 493/488/392 494/488/392
f 494/488/392 495/488/392 492/488/392
f 496/488/393 497/488/393 498/488/393
f 498/488/393 499/488/393 496/488/393
f 500/488/394 488/488/394 491/488/394
f 491/488/394 501/488/394 500/488/394
f 502/488/395 492/488/395 495/488/395
f 495/488/395 503/488/395 502/488/395
f 504/488/396 505/488/396 506/488/396
f 506/488/396 507/488/396 504/488/396
f 508/488/397 509/488/397 510/488/397
f 510/488/397 511/488/397 508/488/397
f 512/488/398 500/488/398 501/488/398
f 501/488/398 513/488/398 512/488/398
f 489/488/399 502/488/399 503/488/399
f 503/488/399 490/488/399 489/488/399
f 509/488/400 514/488/400 515/488/400
f 515/488/400 510/488/400 509/488/400
f 493/488/401 508/488/401 511/488/401
f 511/488/401 494/488/401 493/488/401
f 497/488/402 512/488/402 513/488/402
f 513/488/402 498/488/402 497/488/402
f 514/488/403 496/488/403 499/488/403
f 499/488/403 515/488/403 514/488/403
f 516/488/404 517/488/404 510/488/404
f 510/488/404 515/488/404 516/488/404
f 517/488/405 518/488/405 511/488/405
f 511/488/405 510/488/405 517/488/405
f 518/488/406 519/488/406 494/488/406
f 494/488/406 511/488/406 518/488/406
f 519/488/407 520/488/407 495/488/407
f 495/488/407 494/488/407 519/488/407
f 520/488/408 521/488/408 503/488/408
f 503/488/408 495/488/408 520/488/408
f 521/488/409 522/488/409 490/488/409
f 490/488/409 503/488/409 521/488/409
f 522/488/410 523/488/410 491/488/410
f 491/488/410 490/488/410 522/488/410
f 523/488/411 524/488/411 501/488/411
f 501/488/411 491/488/411 523/488/411
f 524/488/412 525/488/412 513/488/412
f 513/488/412 501/488/412 524/488/412
f 525/488/413 526/488/413 498/488/413
f 498/488/413 513/488/413 525/488/413
f 526/488/414 527/488/414 499/488/414
f 499/488/414 498/488/414 526/488/414
f 527/488/415 516/488/415 515/488/415
f 515/488/415 499/488/415 527/488/415
f 514/488/416 509/488/416 528/488/416
f 528/488/416 529/488/416 514/488/416
f 509/488/417 508/488/417 530/488/417
f 530/488/417 528/488/417 509/488/417
f 508/488/418 493/488/418 531/488/418
f 531/488/418 530/488/418 508/488/418
f 493/488/419 492/488/419 532/488/419
f 532/488/419 531/488/419 493/488/419
f 492/488/420 502/488/420 533/488/420
f 533/488/420 532/488/420 492/488/420
f 502/488/421 489/488/421 534/488/421
f 534/488/421 533/488/421 502/488/421
f 489/488/422 488/488/422 535/488/422
f 535/488/422 534/488/422 489/488/422
f 488/488/423 500/488/423 536/488/423
f 536/488/423 535/488/423 488/488/423
f 500/488/424 512/488/424 537/488/424
f 537/488/424 536/488/424 500/488/424
f 512/488/425 497/488/425 538/488/425
f 538/488/425 537/488/425 512/488/425
f 497/488/426 496/488/426 539/488/426
f 539/488/426 538/488/426 497/488/426
f 496/488/427 514/488/427 529/488/427
f 529/488/427 539/488/427 496/488/427
f 519/488/428 518/488/428 517/488/428
f 517/488/428 516/488/428 527/488/428
f 527/488/428 526/488/428 525/488/428
f 525/488/428 524/488/428 523/488/428
f 523/488/428 522/488/428 521/488/428
f 521/488/428 520/488/428 519/488/428
f 519/488/428 517/488/428 527/488/428
f 527/488/428 525/488/428 523/488/428
f 523/488/428 521/488/428 519/488/428
f 519/488/428 527/488/428 523/488/428
f 529/488/429 528/488/430 540/488/431
f 540/488/431 541/488/432 529/488/429
f 528/488/430 530/488/433 542/488/434
f 542/488/434 540/488/431 528/488/430
f 530/488/433 531/488/435 543/488/436
f 543/488/436 542/488/434 530/488/433
f 531/488/435 532/488/437 506/488/438
f 506/488/438 543/488/436 531/488/435
f 532/488/437 533/488/439 507/488/440
f 507/488/440 506/488/438 532/488/437
f 533/488/439 534/488/441 544/488/442
f 544/488/442 507/488/440 533/488/439
f 534/488/441 535/488/443 545/488/444
f 545/488/444 544/488/442 534/488/441
f 535/488/443 536/488/445 546/488/445
f 546/488/445 545/488/444 535/488/443
f 536/488/445 537/488/446 547/488/447
f 547/488/447 546/488/445 536/488/445
f 537/488/446 538/488/448 548/488/449
f 548/488/449 547/488/447 537/488/446
f 538/488/448 539/488/450 549/488/451
f 549/488/451 548/488/449 538/488/448
f 539/488/450 529/488/429 541/488/432
f 541/488/432 549/488/451 539/488/450
f 550/489/452 551/489/452 552/489/452
f 552/489/452 553/489/452 554/489/452
f 554/489/452 555/489/452 556/489/452
f 556/489/452 557/489/452 558/489/452
f 558/489/452 559/489/452 560/489/452
f 560/489/452 561/489/452 550/489/452
f 550/489/452 552/489/452 554/489/452
f 554/489/452 556/489/452 558/489/452
f 558/489/452 560/489/452 550/489/452
f 550/489/452 554/489/452 558/489/452
f 562/488/453 563/488/453 549/488/453
f 549/488/453 541/488/453 562/488/453
f 564/488/454 565/488/454 540/488/454
f 540/488/454 542/488/454 564/488/454
f 566/488/455 567/488/455 546/488/455
f 546/488/455 547/488/455 566/488/455
f 568/488/456 504/488/456 507/488/456
f 507/488/456 544/488/456 568/488/456
f 569/488/457 564/488/457 542/488/457
f 542/488/457 543/488/457 569/488/457
f 570/488/458 566/488/458 547/488/458
f 547/488/458 548/488/458 570/488/458
f 571/488/459 568/488/459 544/488/459
f 544/488/459 545/488/459 571/488/459
f 505/488/460 569/488/460 543/488/460
f 543/488/460 506/488/460 505/488/460
f 563/488/461 570/488/461 548/488/461
f 548/488/461 549/488/461 563/488/461
f 565/488/462 562/488/462 541/488/462
f 541/488/462 540/488/462 565/488/462
f 567/488/463 571/488/463 545/488/463
f 545/488/463 546/488/463 567/488/463
f 572/488/464 573/488/464 574/488/464
f 574/488/464 575/488/464 572/488/464
f 576/488/465 577/488/465 578/488/465
f 578/488/465 579/488/465 576/488/465
f 577/488/466 576/488/466 572/488/466
f 572/488/466 575/488/466 577/488/466
f 578/488/467 577/488/467 575/488/467
f 575/488/467 574/488/467 578/488/467
f 579/488/468 578/488/468 574/488/468
f 574/488/468 573/488/468 579/488/468
f 576/488/469 579/488/469 573/488/469
f 573/488/469 572/488/469 576/488/469
f 580/488/470 581/488/470 582/488/470
f 582/488/470 583/488/470 580/488/470
f 584/488/471 585/488/471 586/488/471
f 586/488/471 587/488/471 584/488/471
f 587/488/472 581/488/472 580/488/472
f 580/488/472 584/488/472 587/488/472
f 586/488/473 582/488/473 581/488/473
f 581/488/473 587/488/473 586/488/473
f 585/488/474 583/488/474 582/488/474
f 582/488/474 586/488/474 585/488/474
f 584/488/475 580/488/475 583/488/475
f 583/488/475 585/488/475 584/488/475
f 588/488/476 589/488/476 590/488/476
f 590/488/476 591/488/476 588/488/476
f 592/488/477 593/488/477 594/488/477
f 594/488/477 595/488/477 592/488/477
f 596/488/478 597/488/478 598/488/478
f 598/488/478 599/488/478 596/488/478
f 600/488/479 588/488/479 591/488/479
f 591/488/479 601/488/479 600/488/479
f 602/488/480 592/488/480 595/488/480
f 595/488/480 603/488/480 602/488/480
f 604/488/481 605/488/481 606/488/481
f 606/488/481 607/488/481 604/488/481
f 608/488/482 609/488/482 610/488/482
f 610/488/482 611/488/482 608/488/482
f 612/488/483 600/488/483 601/488/483
f 601/488/483 613/488/483 612/488/483
f 589/488/484 602/488/484 603/488/484
f 603/488/484 590/488/484 589/488/484
f 609/488/485 614/488/485 615/488/485
f 615/488/485 610/488/485 609/488/485
f 593/488/486 608/488/486 611/488/486
f 611/488/486 594/488/486 593/488/486
f 597/488/487 612/488/487 613/488/487
f 613/488/487 598/488/487 597/488/487
f 614/488/488 596/488/488 599/488/488
f 599/488/488 615/488/488 614/488/488
f 616/488/489 617/488/489 610/488/489
f 610/488/489 615/488/489 616/488/489
f 617/488/490 618/488/490 611/488/490
f 611/488/490 610/488/490 617/488/490
f 618/488/491 619/488/491 594/488/491
f 594/488/491 611/488/491 618/488/491
f 619/488/492 620/488/492 595/488/492
f 595/488/492 594/488/492 619/488/492
f 620/488/493 621/488/493 603/488/493
f 603/488/493 595/488/493 620/488/493
f 621/488/494 622/488/494 590/488/494
f 590/488/494 603/488/494 621/488/494
f 622/488/495 623/488/495 591/488/495
f 591/488/495 590/488/495 622/488/495
f 623/488/496 624/488/496 601/488/496
f 601/488/496 591/488/496 623/488/496
f 624/488/497 625/488/497 613/488/497
f 613/488/497 601/488/497 624/488/497
f 625/488/498 626/488/498 598/488/498
f 598/488/498 613/488/498 625/488/498
f 626/488/499 627/488/499 599/488/499
f 599/488/499 598/488/499 626/488/499
f 627/488/500 616/488/500 615/488/500
f 615/488/500 599/488/500 627/488/500
f 614/488/501 609/488/501 628/488/501
f 628/488/501 629/488/501 614/488/501
f 609/488/502 608/488/502 630/488/502
f 630/488/502 628/488/502 609/488/502
f 608/488/503 593/488/503 631/488/503
f 631/488/503 630/488/503 608/488/503
f 593/488/504 592/488/504 632/488/504
f 632/488/504 631/488/504 593/488/504
f 592/488/505 602/488/505 633/488/505
f 633/488/505 632/488/505 592/488/505
f 602/488/506 589/488/506 634/488/506
f 634/488/506 633/488/506 602/488/506
f 589/488/507 588/488/507 635/488/507
f 635/488/507 634/488/507 589/488/507
f 588/488/508 600/488/508 636/488/508
f 636/488/508 635/488/508 588/488/508
f 600/488/509 612/488/509 637/488/509
f 637/488/509 636/488/509 600/488/509
f 612/488/510 597/488/510 638/488/510
f 638/488/510 637/488/510 612/488/510
f 597/488/511 596/488/511 639/488/511
f 639/488/511 638/488/511 597/488/511
f 596/488/512 614/488/512 629/488/512
f 629/488/512 639/488/512 596/488/512
f 619/488/513 618/488/513 617/488/513
f 617/488/513 616/488/513 627/488/513
f 627/488/513 626/488/513 625/488/513
f 625/488/513 624/488/513 623/488/513
f 623/488/513 622/488/513 621/488/513
f 621/488/513 620/488/513 619/488/513
f 619/488/513 617/488/513 627/488/513
f 627/488/513 625/488/513 623/488/513
f 623/488/513 621/488/513 619/488/513
f 619/488/513 627/488/513 623/488/513
f 629/488/514 628/488/515 640/488/516
f 640/488/516 641/488/517 629/488/514
f 628/488/515 630/488/518 642/488/519
f 642/488/519 640/488/516 628/488/515
f 630/488/518 631/488/520 643/488/520
f 643/488/520 642/488/519 630/488/518
f 631/488/520 632/488/521 606/488/522
f 606/488/522 643/488/520 631/488/520
f 632/488/521 633/488/523 607/488/524
f 607/488/524 606/488/522 632/488/521
f 633/488/523 634/488/525 644/488/526
f 644/488/526 607/488/524 633/488/523
f 634/488/525 635/488/527 645/488/528
f 645/488/528 644/488/526 634/488/525
f 635/488/527 636/488/529 646/488/529
f 646/488/529 645/488/528 635/488/527
f 636/488/529 637/488/530 647/488/531
f 647/488/531 646/488/529 636/488/529
f 637/488/530 638/488/532 648/488/533
f 648/488/533 647/488/531 637/488/530
f 638/488/532 639/488/534 649/488/534
f 649/488/534 648/488/533 638/488/532
f 639/488/534 629/488/514 641/488/517
f 641/488/517 649/488/534 639/488/534
f 650/490/535 651/490/535 652/490/535
f 652/490/535 653/490/535 654/490/535
f 654/490/535 655/490/535 656/490/535
f 656/490/535 657/490/535 658/490/535
f 658/490/535 659/490/535 660/490/535
f 660/490/535 661/490/535 650/490/535
f 650/490/535 652/490/535 654/490/535
f 654/490/535 656/490/535 658/490/535
f 658/490/535 660/490/535 650/490/535
f 650/490/535 654/490/535 658/490/535
f 662/488/536 663/488/536 649/488/536
f 649/488/536 641/488/536 662/488/536
f 664/488/537 665/488/537 640/488/537
f 640/488/537 642/488/537 664/488/537
f 666/488/538 667/488/538 646/488/538
f 646/488/538 647/488/538 666/488/538
f 668/488/539 604/488/539 607/488/539
f 607/488/539 644/488/539 668/488/539
f 669/488/540 664/488/540 642/488/540
f 642/488/540 643/488/540 669/488/540
f 670/488/541 666/488/541 647/488/541
f 647/488/541 648/488/541 670/488/541
f 671/488/542 668/488/542 644/488/542
f 644/488/542 645/488/542 671/488/542
f 605/488/543 669/488/543 643/488/543
f 643/488/543 606/488/543 605/488/543
f 663/488/544 670/488/544 648/488/544
f 648/488/544 649/488/544 663/488/544
f 665/488/545 662/488/545 641/488/545
f 641/488/545 640/488/545 665/488/545
f 667/488/546 671/488/546 645/488/546
f 645/488/546 646/488/546 667/488/546
f 672/488/547 673/488/547 674/488/547
f 674/488/547 675/488/547 672/488/547
f 676/488/548 677/488/548 678/488/548
f 678/488/548 679/488/548 676/488/548
f 680/488/549 681/488/549 682/488/549
f 682/488/549 683/488/549 680/488/549
f 684/488/550 685/488/550 673/488/550
f 673/488/550 672/488/550 684/488/550
f 686/488/551 687/488/551 677/488/551
f 677/488/551 676/488/551 686/488/551
f 688/488/552 689/488/552 690/488/552
f 690/488/552 691/488/552 688/488/552
f 692/488/553 693/488/553 694/488/553
f 694/488/553 695/488/553 692/488/553
f 696/488/554 697/488/554 685/488/554
f 685/488/554 684/488/554 696/488/554
f 675/488/555 674/488/555 687/488/555
f 687/488/555 686/488/555 675/488/555
f 695/488/556 694/488/556 698/488/556
f 698/488/556 699/488/556 695/488/556
f 679/488/557 678/488/557 693/488/557
f 693/488/557 692/488/557 679/488/557
f 683/488/558 682/488/558 697/488/558
f 697/488/558 696/488/558 683/488/558
f 699/488/559 698/488/559 681/488/559
f 681/488/559 680/488/559 699/488/559
f 700/488/560 698/488/560 694/488/560
f 694/488/560 701/488/560 700/488/560
f 701/488/561 694/488/561 693/488/561
f 693/488/561 702/488/561 701/488/561
f 702/488/562 693/488/562 678/488/562
f 678/488/562 703/488/562 702/488/562
f 703/488/563 678/488/563 677/488/563
f 677/488/563 704/488/563 703/488/563
f 704/488/564 677/488/564 687/488/564
f 687/488/564 705/488/564 704/488/564
f 705/488/565 687/488/565 674/488/565
f 674/488/565 706/488/565 705/488/565
f 706/488/566 674/488/566 673/488/566
f 673/488/566 707/488/566 706/488/566
f 707/488/567 673/488/567 685/488/567
f 685/488/567 708/488/567 707/488/567
f 708/488/568 685/488/568 697/488/568
f 697/488/568 709/488/568 708/488/568
f 709/488/569 697/488/569 682/488/569
f 682/488/569 710/488/569 709/488/569
f 710/488/570 682/488/570 681/488/570
f 681/488/570 711/488/570 710/488/570
f 711/488/571 681/488/571 698/488/571
f 698/488/571 700/488/571 711/488/571
f 699/488/572 712/488/572 713/488/572
f 713/488/572 695/488/572 699/488/572
f 695/488/573 713/488/573 714/488/573
f 714/488/573 692/488/573 695/488/573
f 692/488/574 714/488/574 715/488/574
f 715/488/574 679/488/574 692/488/574
f 679/488/575 715/488/575 716/488/575
f 716/488/575 676/488/575 679/488/575
f 676/488/576 716/488/576 717/488/576
f 717/488/576 686/488/576 676/488/576
f 686/488/577 717/488/577 718/488/577
f 718/488/577 675/488/577 686/488/577
f 675/488/578 718/488/578 719/488/578
f 719/488/578 672/488/578 675/488/578
f 672/488/579 719/488/579 720/488/579
f 720/488/579 684/488/579 672/488/579
f 684/488/580 720/488/580 721/488/580
f 721/488/580 696/488/580 684/488/580
f 696/488/581 721/488/581 722/488/581
f 722/488/581 683/488/581 696/488/581
f 683/488/582 722/488/582 723/488/582
f 723/488/582 680/488/582 683/488/582
f 680/488/583 723/488/583 712/488/583
f 712/488/583 699/488/583 680/488/583
f 711/488/584 700/488/584 701/488/584
f 701/488/584 702/488/584 703/488/584
f 703/488/584 704/488/584 705/488/584
f 705/488/584 706/488/584 707/488/584
f 707/488/584 708/488/584 709/488/584
f 709/488/584 710/488/584 711/488/584
f 711/488/584 701/488/584 703/488/584
f 703/488/584 705/488/584 707/488/584
f 707/488/584 709/488/584 711/488/584
f 711/488/584 703/488/584 707/488/584
f 712/488/585 724/488/586 725/488/587
f 725/488/587 713/488/588 712/488/585
f 713/488/588 725/488/587 726/488/589
f 726/488/589 714/488/589 713/488/588
f 714/488/589 726/488/589 727/488/590
f 727/488/590 715/488/590 714/488/589
f 715/488/590 727/488/590 690/488/591
f 690/488/591 716/488/592 715/488/590
f 716/488/592 690/488/591 689/488/593
f 689/488/593 717/488/594 716/488/592
f 717/488/594 689/488/593 728/488/595
f 728/488/595 718/488/596 717/488/594
f 718/488/596 728/488/595 729/488/597
f 729/488/597 719/488/598 718/488/596
f 719/488/598 729/488/597 730/488/599
f 730/488/599 720/488/599 719/488/598
f 720/488/599 730/488/599 731/488/600
f 731/488/600 721/488/600 720/488/599
f 721/488/600 731/488/600 732/488/601
f 732/488/601 722/488/601 721/488/600
f 722/488/601 732/488/601 733/488/602
f 733/488/602 723/488/603 722/488/601
f 723/488/603 733/488/602 724/488/586
f 724/488/586 712/488/585 723/488/603
f 734/490/604 735/490/604 736/490/604
f 736/490/604 737/490/604 738/490/604
f 738/490/604 739/490/604 740/490/604
f 740/490/604 741/490/604 742/490/604
f 742/490/604 743/490/604 744/490/604
f 744/490/604 745/490/604 734/490/604
f 734/490/604 736/490/604 738/490/604
f 738/490/604 740/490/604 742/490/604
f 742/490/604 744/490/604 734/490/604
f 734/490/604 738/490/604 742/490/604
f 746/488/605 724/488/605 733/488/605
f 733/488/605 747/488/605 746/488/605
f 748/488/606 726/488/606 725/488/606
f 725/488/606 749/488/606 748/488/606
f 750/488/607 731/488/607 730/488/607
f 730/488/607 751/488/607 750/488/607
f 752/488/608 728/488/608 689/488/608
f 689/488/608 688/488/608 752/488/608
f 753/488/609 727/488/609 726/488/609
f 726/488/609 748/488/609 753/488/609
f 754/488/610 732/488/610 731/488/610
f 731/488/610 750/488/610 754/488/610
f 755/488/611 729/488/611 728/488/611
f 728/488/611 752/488/611 755/488/611
f 691/488/612 690/488/612 727/488/612
f 727/488/612 753/488/612 691/488/612
f 747/488/613 733/488/613 732/488/613
f 732/488/613 754/488/613 747/488/613
f 749/488/614 725/488/614 724/488/614
f 724/488/614 746/488/614 749/488/614
f 751/488/615 730/488/615 729/488/615
f 729/488/615 755/488/615 751/488/615
usemtl mat1
f 756/491/616 757/492/617 758/493/618
f 758/493/618 759/494/619 756/491/616
f 760/495/620 761/496/621 762/497/622
f 762/497/622 763/498/623 760/495/620
f 764/499/624 760/495/620 763/498/623
f 763/498/623 765/500/625 764/499/624
f 766/501/626 756/491/616 759/494/619
f 759/494/619 767/502/627 766/501/626
f 768/503/627 769/504/619 760/495/620
f 760/495/620 764/499/624 768/503/627
f 770/505/628 771/506/629 756/491/616
f 756/491/616 766/501/626 770/505/628
f 763/498/623 762/497/622 772/507/630
f 772/507/630 765/500/625 763/498/623
f 769/504/619 773/508/618 761/496/621
f 761/496/621 760/495/620 769/504/619
f 771/506/629 774/509/631 757/492/617
f 757/492/617 756/491/616 771/506/629
f 770/505/628 775/510/632 774/509/631
f 774/509/631 771/506/629 770/505/628
# Vertices: 643, normals: 562, texture coordinates: 378, faces: 934

